<svg width="24" height="24" viewBox="0 0 24 24" fill="none" xmlns="http://www.w3.org/2000/svg">
<g clip-path="url(#clip0_582_613)">
<path opacity="0.4" fill-rule="evenodd" clip-rule="evenodd" d="M16.9926 7.75751C16.9926 7.3433 16.6568 7.00751 16.2426 7.00751L10.5858 7.00751C10.1716 7.00751 9.83577 7.3433 9.83577 7.75751C9.83577 8.17172 10.1716 8.50751 10.5858 8.50751L14.432 8.50751L7.22702 15.7125C6.93412 16.0054 6.93412 16.4802 7.22702 16.7731C7.51991 17.066 7.99478 17.066 8.28768 16.7731L15.4926 9.56817L15.4926 13.4144C15.4926 13.8286 15.8284 14.1644 16.2426 14.1644C16.6568 14.1644 16.9926 13.8286 16.9926 13.4144V7.75751Z" fill="#F1F1F4"/>
<path d="M16.2426 7.00774C16.6568 7.00774 16.9926 7.34353 16.9926 7.75774L16.9926 13.4146C16.9926 13.8288 16.6568 14.1646 16.2426 14.1646C15.8284 14.1646 15.4926 13.8288 15.4926 13.4146L15.5166 8.48732L10.5858 8.50774C10.1715 8.50774 9.83576 8.17195 9.83576 7.75774C9.83576 7.34353 10.1715 7.00774 10.5858 7.00774H16.2426Z" fill="#F1F1F4"/>
</g>
<defs>
<clipPath id="clip0_582_613">
<rect width="24" height="24" fill="white"/>
</clipPath>
</defs>
</svg>
