<svg width="24" height="24" viewBox="0 0 24 24" fill="none" xmlns="http://www.w3.org/2000/svg">
<g clip-path="url(#clip0_651_536)">
<path fill-rule="evenodd" clip-rule="evenodd" d="M11.9998 0.294922C5.36982 0.294922 -0.00012207 5.66487 -0.00012207 12.2948C-0.00012207 17.6047 3.43484 22.0897 8.20479 23.6797C8.80479 23.7847 9.02978 23.4247 9.02978 23.1097C9.02978 22.8247 9.01479 21.8797 9.01479 20.8747C5.99982 21.4297 5.21982 20.1397 4.97983 19.4647C4.84483 19.1197 4.25983 18.0547 3.74984 17.7697C3.32984 17.5447 2.72985 16.9897 3.73484 16.9747C4.67983 16.9597 5.35482 17.8447 5.57982 18.2047C6.65981 20.0197 8.38479 19.5097 9.07478 19.1947C9.17978 18.4147 9.49478 17.8897 9.83978 17.5897C7.1698 17.2897 4.37983 16.2548 4.37983 11.6648C4.37983 10.3598 4.84483 9.27983 5.60982 8.43984C5.48982 8.13984 5.06983 6.90985 5.72982 5.25987C5.72982 5.25987 6.73481 4.94487 9.02978 6.48986C9.98977 6.21986 11.0098 6.08486 12.0298 6.08486C13.0497 6.08486 14.0697 6.21986 15.0297 6.48986C17.3247 4.92987 18.3297 5.25987 18.3297 5.25987C18.9897 6.90985 18.5697 8.13984 18.4497 8.43984C19.2147 9.27983 19.6797 10.3448 19.6797 11.6648C19.6797 16.2698 16.8747 17.2897 14.2047 17.5897C14.6397 17.9647 15.0147 18.6847 15.0147 19.8097C15.0147 21.4147 14.9997 22.7047 14.9997 23.1097C14.9997 23.4247 15.2247 23.7997 15.8247 23.6797C20.5647 22.0897 23.9996 17.5897 23.9996 12.2948C23.9996 5.66487 18.6297 0.294922 11.9998 0.294922Z" fill="white"/>
</g>
<defs>
<clipPath id="clip0_651_536">
<rect width="23.9998" height="23.9998" fill="white"/>
</clipPath>
</defs>
</svg>
