<svg width="24" height="24" viewBox="0 0 24 24" fill="none" xmlns="http://www.w3.org/2000/svg">
<g clip-path="url(#clip0_344_273)">
<path fill-rule="evenodd" clip-rule="evenodd" d="M11.9998 0.295C5.36982 0.295 -0.00012207 5.66494 -0.00012207 12.2949C-0.00012207 17.6048 3.43484 22.0898 8.20479 23.6798C8.80479 23.7848 9.02978 23.4248 9.02978 23.1098C9.02978 22.8248 9.01478 21.8798 9.01478 20.8748C5.99982 21.4298 5.21982 20.1398 4.97983 19.4648C4.84483 19.1198 4.25983 18.0548 3.74984 17.7698C3.32984 17.5448 2.72985 16.9898 3.73484 16.9748C4.67983 16.9598 5.35482 17.8448 5.57982 18.2048C6.65981 20.0198 8.38479 19.5098 9.07478 19.1948C9.17978 18.4148 9.49478 17.8898 9.83978 17.5898C7.1698 17.2898 4.37983 16.2548 4.37983 11.6649C4.37983 10.3599 4.84483 9.27991 5.60982 8.43992C5.48982 8.13992 5.06983 6.90993 5.72982 5.25995C5.72982 5.25995 6.73481 4.94495 9.02978 6.48994C9.98977 6.21994 11.0098 6.08494 12.0298 6.08494C13.0497 6.08494 14.0697 6.21994 15.0297 6.48994C17.3247 4.92995 18.3297 5.25995 18.3297 5.25995C18.9897 6.90993 18.5697 8.13992 18.4497 8.43992C19.2147 9.27991 19.6797 10.3449 19.6797 11.6649C19.6797 16.2698 16.8747 17.2898 14.2047 17.5898C14.6397 17.9648 15.0147 18.6848 15.0147 19.8098C15.0147 21.4148 14.9997 22.7048 14.9997 23.1098C14.9997 23.4248 15.2247 23.7998 15.8247 23.6798C20.5647 22.0898 23.9996 17.5898 23.9996 12.2949C23.9996 5.66494 18.6297 0.295 11.9998 0.295Z" fill="white"/>
</g>
<defs>
<clipPath id="clip0_344_273">
<rect width="23.9998" height="23.9998" fill="white"/>
</clipPath>
</defs>
</svg>
