<svg width="24" height="24" viewBox="0 0 24 24" fill="none" xmlns="http://www.w3.org/2000/svg">
<g clip-path="url(#clip0_344_269)">
<path d="M1.09862 9.31312L1.27795 9.54624C0.937228 9.54624 0.578578 9.51038 0.52478 9.36692V9.31312C0.704105 9.27725 0.88343 9.27726 1.11655 9.27726L1.09862 9.31312ZM2.92774 10.0663L2.99947 10.3173H2.82014L2.85601 10.0663H2.92774ZM3.57331 11.8954C3.39398 12.0568 3.26845 12.1465 3.17879 12.3975C3.03533 12.272 2.9636 12.0389 2.9098 11.7878L2.82014 10.9808V10.8553H3.0174L3.51951 11.7878L3.57331 11.8954ZM3.32225 9.56417C3.34533 9.38474 3.36924 9.20541 3.39398 9.0262H3.46571L3.32225 9.56417ZM3.17879 7.23295L4.07542 7.46607V7.51987C3.66297 7.82472 3.26845 7.95025 3.0712 8.52409L3.14293 7.26881L3.17879 7.23295ZM4.02162 5.94181C3.96782 6.51565 4.05748 6.7667 4.14715 7.12535C4.32647 7.25088 4.38027 7.30468 4.32647 7.484C4.05748 7.35848 3.77056 7.21502 3.35812 7.23295L3.32225 7.19708C3.44778 6.74877 3.6809 6.46185 3.84229 6.1032L4.02162 5.92387V5.94181ZM5.33069 5.17071H5.36656C5.24103 5.58316 5.18723 6.56945 4.97204 6.96396C4.452 6.73084 4.46993 5.67282 5.04377 5.26037L5.33069 5.17071ZM4.84652 8.32683L5.2769 8.81101C5.09757 9.33105 4.79272 9.70763 4.64926 10.3173H4.3982C4.18301 9.6897 4.72099 8.70341 4.81065 8.2551L5.2231 8.3089L5.36656 8.66755L4.84652 8.32683ZM6.03006 5.18864C5.9942 5.69075 6.10179 5.94181 6.13766 6.33632L5.36656 6.73084C5.42036 6.08527 5.54588 5.65489 5.72521 5.20657L6.03006 5.18864ZM6.33491 4.41754H6.38871L6.29905 4.65067H6.11972L6.26318 4.50721L6.33491 4.41754ZM6.38871 6.7667C6.13766 6.94603 5.86867 7.08949 5.61761 7.25088C5.63554 6.96396 5.9942 6.56944 6.29905 6.46185L6.37078 6.51565V6.7667H6.38871ZM6.89082 4.99138L6.76529 5.78041L6.62183 5.87008L6.53217 5.95974C6.40664 5.76248 6.35285 5.2783 6.38871 4.91965L6.89082 4.99138ZM7.41086 4.39961V4.43548L7.21361 4.6148C7.07015 4.6686 7.07015 4.6686 6.89082 4.6686L6.96255 4.39961H7.41086ZM7.91297 3.37746L7.69778 3.8975L6.89082 3.82577V3.78991C7.23154 3.64645 7.51846 3.46712 7.91297 3.37746ZM7.50053 4.70446L7.59019 4.6686L7.66192 4.91965C7.57226 4.91965 7.48259 4.88379 7.41086 4.86586L7.50053 4.70446ZM8.16403 5.47556C7.85918 5.60109 7.44673 5.56522 7.19567 5.69075L7.15981 5.3859L7.30327 5.18864C7.57226 5.2783 7.84124 5.36797 8.07437 5.47556H8.16403ZM7.51846 5.94181H7.15981V5.85214C7.39293 5.74455 7.80538 5.74455 8.16403 5.69075L7.78745 5.90594L7.51846 5.94181ZM8.41508 5.94181C8.12128 6.05214 7.86157 6.23764 7.66192 6.47978C7.62605 6.22873 8.07437 5.81628 8.28956 5.69075C8.37922 5.78041 8.39715 5.78041 8.43302 5.94181H8.41508ZM8.95306 2.85741L8.93513 2.89328L8.63027 3.07261L8.16403 3.10847V3.07261L8.93513 2.85741H8.95306ZM8.52268 3.62851L8.43302 3.48505C8.64821 3.30573 9.15032 3.39539 9.45517 3.43126L8.52268 3.62851ZM10.8001 2.85741C11.2305 2.89328 11.625 2.98294 11.9119 3.1802H12.0016L11.9478 3.234L11.5353 3.35953L10.818 3.25193L9.20411 3.01881V2.98294C9.72416 2.87535 10.2801 2.80362 10.818 2.85741H10.8001ZM12.5037 2.71396L12.414 2.83948C12.1731 2.82235 11.9425 2.73508 11.7505 2.58843L12.5037 2.67809V2.71396ZM13.8666 3.66438L14.0818 3.59265L14.2969 3.77197C14.2611 3.98716 14.0638 4.16649 13.9024 4.38168H13.7769C13.4362 3.8437 13.0237 3.234 12.2885 3.01881L12.2526 2.96501L12.5575 2.83948C13.0596 3.01881 13.4541 3.26986 13.9383 3.43126C13.9921 3.57472 13.9742 3.52092 13.8666 3.66438ZM14.4763 4.90172L14.4225 4.82999H14.2969L14.5121 4.65067L14.4763 4.90172ZM14.7094 7.73506C15.068 8.03991 15.1398 8.47029 14.9963 9.0262L14.548 8.05784L14.6915 7.82472V7.75299L14.7094 7.73506ZM14.7991 5.42176V5.47556L14.6197 5.67282L14.548 5.54729C14.6556 5.35003 14.5839 5.45763 14.7273 5.42176H14.7991ZM15.0142 5.42176L15.8212 5.72662V5.79835L15.624 5.94181L14.7991 5.63695V5.56522L15.0142 5.42176ZM16.5923 6.44392L16.144 6.157L16.0902 6.03147C16.2695 5.92387 16.2516 5.92387 16.4488 5.95974L16.5923 6.44392ZM16.8434 6.35425L16.7537 6.44392C16.6461 6.39012 16.6282 6.31839 16.5923 6.19286L16.8254 6.30046L16.8434 6.35425ZM16.664 5.61902H16.5923L16.8075 5.42176L16.664 5.60109V5.61902ZM17.8655 6.91016L17.74 6.96396L17.0586 6.58738L16.8434 6.30046C17.202 6.03147 17.202 6.33632 17.5607 6.49772L17.8655 6.91016ZM18.1345 7.16122L17.8834 7.07156L18.0448 6.98189L18.1345 7.16122ZM17.8297 7.57367C17.9193 7.75299 17.9193 7.71713 18.1345 7.68126L17.7579 8.02198C17.6326 7.7708 17.5071 7.51975 17.3813 7.26881C17.6503 7.19708 17.74 7.30468 18.009 7.34054L18.1166 7.51987L17.8297 7.57367ZM17.8834 8.03991L18.4035 7.75299C18.2959 7.98611 18.1704 8.11164 18.009 8.29097L17.8834 8.03991ZM18.9056 9.0262C18.7621 9.15173 18.6725 9.18759 18.4214 9.20552L18.6366 9.22346V9.25932L17.9193 9.56417L17.8834 8.64962L18.3856 8.05784L18.4752 8.02198L18.9056 9.0262ZM18.6545 7.60953C20.0533 7.21502 19.7843 7.96818 19.1567 8.54202L18.6545 7.60953ZM19.9278 7.75299C19.4077 10.1918 19.3181 10.3353 17.471 11.3754L17.3813 11.2319L17.4351 10.9629C18.6366 10.6043 19.318 9.99455 19.2463 8.57789L19.856 7.80679L19.9278 7.75299ZM19.9995 7.75299L19.9278 7.50194H20.1071L19.9995 7.75299ZM16.8613 10.1201C16.8724 9.95863 16.8843 9.79723 16.8972 9.63591L17.0765 9.56417H17.0944C17.1482 9.86903 17.0944 10.1021 17.0048 10.3353C16.9151 10.2815 16.8972 10.2635 16.8613 10.1201ZM15.8212 12.3616V12.3258L16.1799 11.5188L16.2337 11.3395L16.8254 11.3933L16.8434 11.5188C16.8792 11.8237 16.7716 12.0568 16.664 12.3975L15.8033 12.3616H15.8212ZM16.0902 13.4017C16.0899 13.2344 16.0899 13.067 16.0902 12.8996L16.5385 12.9355H16.5923L16.3054 13.4197H16.0902V13.4017ZM15.8391 11.734H15.8571L16.0543 11.6085H16.0902L16.0543 11.7161L15.9288 12.1285L15.8212 11.7699V11.734H15.8391ZM15.4267 13.0251L15.3191 12.8996C15.4267 12.9893 15.355 12.8996 15.4267 13.0251ZM14.7991 12.7203C14.9425 12.6306 15.1039 12.6486 15.3191 12.6486L15.2474 12.8638C15.068 12.9355 15.068 12.8996 14.8529 12.8817L14.7991 12.7024V12.7203ZM15.1218 13.6707L15.3012 14.137L14.8529 14.4597C14.7273 14.2804 14.8708 13.7424 15.1218 13.6707ZM14.6197 12.0568H14.548L14.6377 11.8775L14.6197 12.0568ZM15.337 12.1285L15.3191 12.1106L15.4267 11.8775H15.4626L15.5702 12.1285H15.355H15.337ZM17.1303 8.77514L17.1124 8.68548C17.167 8.60775 17.2412 8.54588 17.3275 8.50616L17.3634 8.68548L17.202 8.77514H17.1124H17.1303ZM17.1124 9.40278C17.0586 9.47451 16.9689 9.49244 16.933 9.54624L16.8434 8.2551L17.1124 9.40278ZM16.6282 11.1422C16.8075 11.0346 16.8254 11.1422 16.8434 11.3574H16.3413V11.2678L16.6282 11.1422ZM16.3771 10.4249L16.5026 10.3173L16.5923 10.4967L16.5564 10.5863L16.3413 10.5505L16.3771 10.4249ZM16.3413 11.1064L16.0723 11.3574L15.8929 11.3216H15.8212L15.9467 11.1064H16.3413ZM15.3729 10.9629C15.2653 10.8912 15.337 10.8912 15.3191 10.8374L15.3729 10.9629ZM16.1799 9.81523L15.3191 9.36692C15.355 8.77514 15.4267 8.09371 15.3729 7.484C16.0364 7.73506 16.6282 8.81101 16.1799 9.81523ZM15.5702 9.81523C15.7853 9.92282 15.7674 10.0304 16.0723 10.1201C16.1261 10.2994 16.0364 10.3711 15.9109 10.5863H15.624C15.5522 10.2277 15.624 10.0484 15.5881 9.81523H15.5702ZM15.624 11.483C15.5164 11.4112 15.606 11.4112 15.5881 11.3574L15.624 11.483ZM17.3634 8.99033V8.95447L17.5965 8.79308C17.6324 9.06206 17.6145 9.51038 17.5607 9.83316C17.4172 9.72557 17.3813 9.27726 17.3634 9.00827V8.99033ZM17.3634 9.81523L17.5069 9.54624L17.4172 9.7973H17.3634V9.81523ZM18.8518 9.04413H18.8877C18.8877 10.0304 18.2959 10.2097 17.4889 10.5684H17.3634L17.8655 9.54624L18.8518 9.04413ZM17.3275 7.10742L17.3634 7.17915L17.2917 7.23295L17.1124 6.96396L17.3275 7.10742ZM17.1124 7.5378V7.484H17.1661L17.3455 7.73506C17.2199 7.68126 17.1841 7.66333 17.1124 7.5378ZM17.3634 8.2013L17.0048 8.52409L16.2875 7.44814L15.3191 6.62324L15.5343 6.44392C16.0005 6.65911 16.7896 7.03569 16.9689 7.51987C17.0227 7.66333 16.8434 7.78886 16.9689 7.91438C17.1124 8.07578 17.2558 7.96818 17.3634 8.2013ZM15.2115 9.81523L15.2832 9.83316L15.3191 10.5863L15.1936 10.5505C15.086 10.4787 15.0142 10.0842 15.1039 9.92282L15.2115 9.81523ZM14.6377 11.1064H14.7273L14.7991 11.2857L14.6735 11.3574H14.548L14.6377 11.1064ZM14.4045 15.2308L14.2969 14.8543C14.4643 14.8185 14.6317 14.7826 14.7991 14.7467L14.4045 15.2308ZM14.0459 14.1908C14.0818 14.0473 14.1176 14.0114 14.2073 13.9397L14.279 13.9576L14.2969 14.0294L14.1356 14.1908H14.0459ZM14.1535 14.4597L14.0459 14.3163L14.2969 14.1908L14.2252 14.4418H14.1535V14.4597ZM13.8845 15.6254L13.7948 15.5357H13.8666L14.2611 15.2308L14.2969 15.5357L13.9921 15.7509L13.8845 15.6254ZM13.9204 18.5842C13.2927 18.6022 12.9341 18.4587 12.432 18.4049L11.8581 17.2752L11.7505 17.1676C12.701 17.042 13.3107 16.5758 14.028 16.2709C14.279 16.5041 14.8529 17.7055 14.3507 18.2614C14.2252 18.4408 14.0997 18.4587 13.9204 18.5842ZM11.2664 17.311L11.4995 17.2931C11.8581 17.5262 12.0912 17.9387 12.2526 18.3332L11.2305 18.0283C11.312 17.7978 11.3245 17.5485 11.2664 17.311ZM10.5491 16.3247L11.6967 16.0019L13.49 16.1813L13.5258 16.2709C12.9879 16.5041 12.3782 16.7192 11.7685 17.0241C11.087 17.0779 10.9256 16.8448 10.4773 16.6654C10.4773 16.5579 10.5132 16.4503 10.5491 16.3247ZM10.4773 17.5441V17.3289L10.9256 17.2931C10.9615 17.4724 10.9974 17.5979 10.9436 17.8131L10.4773 17.5441ZM9.95728 17.9566L10.1366 17.8669C10.3339 17.7235 10.4953 17.9028 10.7284 17.9745L10.6387 18.0642L9.95728 17.9566ZM10.4594 17.5441L10.2801 17.4724L10.2083 17.2931H10.4773L10.4594 17.5441ZM9.70623 17.5441L9.95728 17.7773L9.92141 18.0642L9.70623 17.5621V17.5441ZM9.04272 16.5758C9.27585 16.5041 9.59863 16.522 9.95728 16.522L9.61656 16.773L8.93513 16.7013L9.04272 16.5758ZM8.43302 3.66438C8.89926 3.19813 10.0828 3.32366 10.3877 3.61058H10.4773C10.0649 3.96923 9.45517 4.02303 9.07859 4.38168C8.79167 4.20235 8.54061 4.05889 8.43302 3.66438ZM11.0332 4.38168L11.2305 4.6148L10.6925 4.65067C10.2621 4.68653 9.84968 4.75826 9.54483 4.90172H9.5269L9.4731 4.81206C9.95053 4.56272 10.4771 4.42188 11.0153 4.39961H11.0512L11.0332 4.38168ZM12.0195 3.09054C12.3602 3.43126 12.8444 3.62851 13.0237 4.13062C12.3244 3.80784 11.2664 3.80784 10.7284 3.30573C10.9467 3.36203 11.1744 3.37197 11.3967 3.3349C11.6191 3.29784 11.8313 3.2146 12.0195 3.09054ZM12.2526 4.90172L13.2031 5.02725H13.2748L12.5216 5.67282C12.3961 5.4397 12.3602 5.11691 12.2526 4.90172ZM13.4721 6.01354L13.2927 5.97767L13.5258 5.94181L13.4721 6.01354ZM13.2927 5.3859L13.5079 5.17071L13.5258 5.42176L13.3465 5.3859H13.2748H13.2927ZM13.741 13.9397H13.6334L13.5258 13.85L13.5976 13.7424C13.6693 13.7424 13.7231 13.7066 13.7769 13.6707L13.741 13.9397ZM13.5438 14.406L13.6334 14.2984V14.1908L13.7948 14.4239L13.5258 14.4597V14.406H13.5438ZM13.4362 15.2308L13.2748 15.0515L13.7948 14.9619L13.5438 15.2129H13.4362V15.2308ZM13.5258 16.0019L13.0237 15.9481L13.3824 15.7509L13.5258 16.0019ZM13.1672 15.2846L13.2748 15.3743L12.9161 15.464L12.5037 15.4819L13.0596 15.2308L13.1672 15.2667V15.2846ZM11.7326 4.13062C12.0375 4.13062 12.3602 4.22029 12.5037 4.38168C12.3064 4.38168 11.9299 4.39961 11.8402 4.23822L11.7505 4.13062H11.7326ZM12.0016 5.17071C12.145 5.29624 12.1988 5.4397 12.1809 5.67282C11.9478 5.60109 12.0016 5.35003 12.0016 5.17071ZM12.2526 6.78464V6.74877C12.7727 6.64117 12.8803 6.80257 12.6472 6.96396C12.4985 6.95292 12.3587 6.88935 12.2526 6.78464ZM12.9161 13.4197L13.0237 13.4555V13.4914L12.7727 13.6707L12.8623 13.4197H12.9161ZM12.7727 7.12535L12.952 6.96396L13.0237 7.23295L12.7727 7.17915V7.12535ZM13.5258 14.0294L12.9161 14.1908H12.7727V14.1728C12.9638 14.1433 13.1435 14.0627 13.2927 13.9397L13.5079 13.9756L13.5258 14.0294ZM13.0955 13.4197L13.0237 13.2762L13.2031 13.1686L13.2748 13.2045L13.1672 13.4197H13.0955ZM11.4815 15.2129L11.7864 14.9619L12.7368 15.0515L12.7727 15.1233L12.1271 15.4819C11.9143 15.4531 11.7179 15.3518 11.5712 15.195H11.4815V15.2129ZM11.0153 15.2129L11.4815 15.4819L10.7284 15.3564L11.0153 15.2308V15.2129ZM10.9794 15.7509V15.8226L10.836 15.8944H10.7284V15.8406C10.836 15.6971 10.818 15.7509 10.9794 15.7509ZM9.77796 5.24244L9.70623 5.18864C10.0353 5.04665 10.3881 4.96758 10.7463 4.95552L11.625 4.91965L11.7505 5.69075L10.7463 5.60109C10.447 5.58719 10.147 5.59919 9.84969 5.63695L9.77796 5.2783V5.24244ZM10.1366 15.6074L10.2083 15.715L10.1545 15.9481L9.43724 16.0019C9.5269 15.7688 9.6345 15.6612 9.76002 15.4819L10.1545 15.6074H10.1366ZM9.27584 14.7108C8.95306 14.7108 8.52268 14.4597 8.43302 14.1908L9.45517 14.4597L9.27584 14.7108ZM9.63449 14.7108H9.45517V14.657L9.67036 14.4597L9.63449 14.6929V14.7108ZM8.93513 5.26037L9.23998 5.17071L9.45517 5.40383H9.23998L8.93513 5.26037ZM8.93513 16.3427L8.88133 16.522H8.8096L8.68407 16.253L8.93513 16.2889V16.3427ZM9.07859 15.2308L9.67036 15.3564L9.70623 15.4281L9.23998 16.0019L8.68407 15.9123L9.07859 15.2308ZM13.5258 7.14329L13.6514 6.96396H13.6872L14.01 7.05362L14.0459 7.08949L13.6872 7.23295L13.5258 7.14329ZM14.2252 6.30046L14.0459 6.19286C14.2252 6.26459 14.1176 6.19286 14.2252 6.30046ZM14.1714 7.484L14.0459 7.37641L14.2969 7.23295L14.1714 7.484ZM14.0459 9.27726C14.1714 9.33105 14.2969 9.34898 14.4404 9.38485C14.548 9.43865 14.548 9.43865 14.548 9.56417C14.3687 9.49244 14.0997 9.43865 14.0459 9.29519V9.27726ZM14.0818 8.59582C14.0818 8.55995 14.1176 8.54202 14.1356 8.52409L14.2969 8.77514C14.2073 8.77514 14.1176 8.73928 14.0459 8.72135L14.0818 8.59582ZM8.91719 17.0779L8.93513 17.1496L8.59441 17.2752L8.41508 17.2931V17.2572L8.54061 17.0779C8.71994 17.0062 8.71994 17.042 8.89926 17.0779H8.91719ZM8.16403 4.13062C8.39715 4.30995 8.45095 4.48927 8.41508 5.17071C8.27162 4.99138 8.18196 4.57894 8.16403 4.13062ZM8.32542 3.61058L8.30749 3.78991L8.16403 3.80784L8.32542 3.62851V3.61058ZM8.16403 3.87957V4.05889L7.91297 4.02303L8.11023 3.87957H8.16403ZM8.16403 18.8353L8.28956 17.5262L9.18618 17.2931L8.25369 18.7994L8.16403 18.8353ZM8.23576 15.3026L8.37922 15.2308C8.50475 15.3743 8.37922 15.5895 8.27162 15.7509C8.16403 15.6433 8.16403 15.5895 8.18196 15.3922L8.23576 15.3026ZM7.41086 15.177L7.69778 14.7108L8.16403 14.9798L7.67985 15.7509C7.52594 15.5969 7.43078 15.3939 7.41086 15.177ZM7.41086 17.2034L7.87711 16.773L8.0923 16.791L8.16403 16.9165L8.11023 17.2931L7.39293 17.2034H7.41086ZM6.63977 16.8448L7.19567 16.522L7.62605 16.5937L7.66192 16.6475L7.21361 17.042C7.03876 17.0281 6.87118 16.966 6.72943 16.8627H6.63977V16.8448ZM6.56804 16.3606L6.76529 16.253L6.85496 16.2709L6.89082 16.3247L6.29905 16.5041L6.11972 16.4503L6.56804 16.3606ZM5.86867 16.1095L6.03006 15.7509C6.29905 15.715 6.37078 15.8585 6.56804 15.9302L6.63977 16.0378L6.33491 16.2351L6.06593 16.253L5.8866 16.1095H5.86867ZM5.36656 17.1855L5.72521 16.522C5.97626 16.522 6.01213 16.522 6.11972 16.6654C6.15559 16.7372 6.11972 16.7013 6.03006 16.7192L5.9942 16.9524L6.38871 17.0062C6.31698 17.1855 6.29905 17.1855 6.17352 17.2931C5.81487 17.2931 5.63555 17.2393 5.36656 17.1676V17.1855ZM4.93618 16.253L5.58175 16.4503L5.61761 16.5399L5.2231 17.0241L4.61339 16.8268L4.95411 16.2351L4.93618 16.253ZM2.42563 15.5716L2.44356 15.4819L2.80221 15.7688L2.83807 15.8406C2.08491 16.4144 3.23259 18.3152 4.54166 17.0958L5.1155 17.311C4.90031 17.6876 4.52373 17.849 4.12922 18.0642C3.19672 18.1359 1.88765 16.6296 2.44356 15.5536L2.42563 15.5716ZM3.32225 15.8226V16.0019L3.10706 15.8406L3.0712 15.7509L3.30432 15.8226H3.32225ZM4.59546 16.9165L4.12922 17.2752C3.21466 17.3827 2.83807 16.7372 2.82014 15.9661L2.99947 15.7509H3.0712C3.53744 16.1095 3.94989 16.6475 4.55959 16.8448L4.59546 16.9165ZM3.69883 13.1507C3.6271 13.0969 3.6271 13.0789 3.57331 12.9714L3.75263 12.3078L3.94989 12.1285L4.09335 12.3078L3.71677 13.1686L3.69883 13.1507ZM3.57331 13.3838L3.98575 12.4334L4.05748 12.3975C4.23681 12.7203 4.52373 12.8638 4.59546 13.2941L3.98575 13.9397C3.80643 13.7962 3.6809 13.6169 3.57331 13.4017V13.3838ZM4.3444 14.1728L4.86445 13.6707L5.1155 14.2087L4.3444 14.1728ZM5.61761 8.9724C5.38449 9.47451 5.06171 9.83316 4.86445 10.3173C4.77479 9.86903 5.29483 9.22346 5.45622 8.82894L5.52795 8.77514L5.61761 8.95447V8.9724ZM5.61761 7.5378C5.95983 7.42463 6.26814 7.22731 6.51424 6.96396L6.63977 7.32261L6.31698 7.73506L5.61761 7.55573V7.5378ZM6.89082 7.57367L6.76529 7.75299L6.63977 7.71713V7.69919L6.87289 7.484L6.89082 7.57367ZM6.7115 6.46185H6.72943L6.90875 6.78464L6.83702 6.96396C6.6039 6.83843 6.6039 6.69497 6.69356 6.46185H6.7115ZM6.63977 13.9397L6.89082 14.119L6.63977 13.9935V13.9397ZM6.63977 14.1908C6.72356 14.2384 6.80724 14.2862 6.89082 14.3342L6.35285 14.7108C6.19145 14.6391 6.17352 14.4956 6.13766 14.3522V14.3163L6.63977 14.1908ZM5.8866 13.6707L6.13766 13.7783L5.9942 13.85H5.86867L5.8866 13.6707ZM5.8866 8.52409C6.17352 8.59582 6.08386 8.54202 6.10179 8.77514C5.95833 8.68548 5.9404 8.64962 5.86867 8.52409H5.8866ZM5.8866 13.1327V12.8996C6.01213 12.9893 6.06593 13.0431 6.13766 13.1686L5.86867 13.1327H5.8866ZM6.38871 9.90489C6.28112 10.0304 6.29905 9.99455 6.13766 10.0663L6.24525 9.81523L6.38871 9.90489ZM6.38871 8.86481L6.20939 9.04413C6.06593 8.93654 6.13766 8.9724 6.20939 8.81101L6.31698 8.77514L6.38871 8.86481ZM6.37078 8.43443L6.11972 8.23717C6.29905 8.3089 6.24525 8.27303 6.35285 8.41649L6.37078 8.43443ZM5.86867 13.1686L6.13766 13.3659C5.9942 13.3659 5.92247 13.33 5.86867 13.1686ZM6.63977 13.1686H6.53217L6.44251 12.9893C6.42447 12.9655 6.40654 12.9415 6.38871 12.9176H6.53217L6.63977 13.1507V13.1686ZM6.49631 8.38063L6.38871 8.2551C6.49631 8.34476 6.42458 8.2551 6.49631 8.38063ZM6.51424 12.6306L6.38871 12.3616C6.38871 12.272 6.42458 12.2003 6.44251 12.1285H6.47837L6.63977 12.6486L6.51424 12.6306ZM5.85074 15.6254L5.86867 15.6612L5.77901 16.0019C5.59968 15.9302 5.42036 15.733 5.36656 15.4819L5.85074 15.6254ZM5.1155 16.0019L5.36656 16.2351C5.18723 16.1633 5.18723 16.1633 5.1155 16.0019ZM5.54588 13.7066L5.58175 13.9397L5.36656 13.6707L5.54588 13.7066ZM5.29483 14.926L5.1155 14.4597C5.33069 14.5315 5.51002 14.8005 5.61761 14.9619L5.29483 14.926ZM5.49209 10.3173H5.56382L5.38449 10.5863C5.34863 10.5146 5.38449 10.4608 5.49209 10.3891V10.3173ZM5.36656 12.541L5.31276 12.6486L5.1693 12.541L5.1155 12.4154L5.29483 12.3975L5.36656 12.541ZM3.57331 14.7108C4.09335 15.0515 4.95411 15.3564 5.1155 16.0019C4.50554 15.7012 3.97666 15.2584 3.57331 14.7108ZM4.90031 14.4597L5.1155 14.7108L4.59546 14.4597H4.90031ZM6.76529 15.2308L6.38871 14.8363L7.07015 14.1908L7.15981 14.9081L6.76529 15.2308ZM7.15981 15.6612L7.21361 15.4819H7.30327L7.41086 15.7509L7.15981 15.6612ZM7.50053 14.7108L7.41086 14.4597C7.46466 14.4597 7.53639 14.4598 7.59019 14.4956L7.50053 14.7108ZM7.14188 6.01354L7.41086 5.94181L7.23154 6.19286L7.15981 6.01354H7.14188ZM4.59546 11.3574L4.36234 10.8374C4.66719 10.9091 4.61339 11.1243 4.59546 11.3574ZM3.96782 11.6085C3.75263 11.465 3.60917 11.1602 3.60917 10.8374C4.03955 10.945 4.02162 11.1243 4.11128 11.5368L3.96782 11.6085ZM3.69883 10.2635C3.37605 9.95869 3.86023 8.73928 4.05748 8.45236C4.18301 8.3089 4.30854 8.3089 4.48787 8.27303L4.61339 8.29097C4.30854 8.82894 4.11128 9.56417 4.02162 10.3173L3.69883 10.2635ZM3.23259 14.4597L3.39398 14.7108L3.25052 15.0336L3.16086 15.1233C3.28639 15.1412 3.30432 15.0336 3.48364 14.9081C3.80643 15.446 4.30854 15.9481 4.86445 16.2351C4.77479 16.4144 4.68512 16.5937 4.55959 16.773L3.64504 16.1813C3.53744 16.0019 3.6809 15.7688 3.51951 15.6433C3.35812 15.5357 3.16086 15.6971 3.0174 15.6433L2.56909 15.2488C2.69461 14.9619 2.82014 14.6929 3.0712 14.5315L3.23259 14.4597ZM2.33596 11.6085C2.38618 11.3477 2.45206 11.0902 2.53322 10.8374L2.65875 11.6085L2.73048 12.003L3.34018 13.6707C2.85601 13.4197 2.55115 12.81 2.60495 11.9851C2.47942 12.2541 2.58702 12.6665 2.60495 12.8817C2.31803 12.6486 2.28217 12.1465 2.3539 11.6085H2.33596ZM1.90558 11.8775L1.81592 11.5547V11.1243L1.86972 11.0346L2.04904 10.8553L1.95938 11.5726L1.90558 11.8775ZM19.6588 14.4597L19.1567 14.2625L19.6588 14.1908V14.4597ZM6.17352 18.638L6.29905 18.5663L6.15559 18.8173V18.638H6.17352ZM2.3001 9.81523L2.08491 9.77936C1.93522 9.71462 1.80602 9.61028 1.71122 9.47756C1.61643 9.34485 1.55963 9.1888 1.54693 9.0262C1.95938 9.06206 2.08491 9.25932 2.3001 9.51038V9.81523ZM2.26423 9.77936C2.3001 9.24139 1.86972 8.88274 1.31381 8.88274C1.42141 8.11164 2.10284 7.71713 2.71255 7.44814H2.82014C2.73048 8.41649 2.80221 9.27725 2.42563 10.1201C2.15664 10.7477 1.18828 10.7298 1.24208 11.6981V11.7878C1.38554 13.061 2.78428 13.33 2.98153 14.4597C0.919296 15.4998 3.44778 19.9292 5.07964 17.3289C5.36656 17.3827 5.63555 17.5083 6.01213 17.3827C6.17352 17.2931 6.19145 17.2034 6.28112 17.0241L6.85496 17.311L6.89082 17.4007C6.35285 17.8131 5.97626 18.387 5.40242 18.7636C5.40242 18.7098 5.43829 18.656 5.45622 18.6201L5.29483 18.5842L5.2231 18.6201L5.15137 18.9787C5.47415 19.3195 6.47837 18.1 6.76529 17.8669C6.58597 18.4408 6.19145 18.7277 5.95833 19.2657L6.03006 19.3374C6.46044 19.0325 6.99842 18.1538 7.07015 17.4903L7.71572 17.5979C6.59086 19.1545 5.25044 20.5432 3.7347 21.7224C3.91402 21.2024 4.16508 20.8258 4.30854 20.3775H4.21888L4.14715 20.3237C3.89609 20.8437 3.44778 21.2203 3.37605 21.9197L3.55537 22.099C4.84652 21.8838 7.01635 18.6201 8.0385 17.7235C7.76951 20.5389 6.26318 20.9693 4.95411 22.6728C6.13766 22.0811 6.87289 20.5747 7.87711 19.7319C7.76951 20.9155 7.48259 23.5336 6.80116 23.9998H6.90875C7.69778 23.4977 7.73365 21.4893 7.9847 20.4492L8.11023 19.3733L9.23998 17.7952C9.27584 17.7952 9.29378 17.7593 9.32964 17.7414C9.45517 18.1538 10.029 18.5663 10.6387 18.4587L11.087 18.2794L12.1988 18.6918C12.3423 20.3057 12.2885 21.2024 11.2664 22.4039C12.3064 21.8659 12.701 19.8395 12.3423 18.7636C14.7632 19.0325 14.6735 18.2256 14.2073 16.4682H14.6377C14.548 16.3606 14.3328 16.4503 14.1714 16.3606C14.0997 16.3068 14.1176 16.3247 14.0818 16.253C14.6556 15.6074 16.0364 16.253 15.7315 17.3289C16.144 16.4323 15.2653 15.6433 14.4045 15.9481C14.7632 15.5357 15.2115 15.177 15.4446 14.6032L15.5164 14.5673L17.5069 16.6475H17.6324L17.7221 16.522L15.8212 14.2804C15.9997 14.2067 16.1791 14.135 16.3592 14.0652L16.2695 14.0114C17.2917 14.119 18.5828 14.9619 19.6408 14.6929C19.7305 14.5135 19.7484 14.4239 19.6767 14.2625C20.8064 14.2804 22.8328 13.9038 23.4784 13.3659C21.7468 13.7379 19.9667 13.8288 18.2062 13.6349L16.7896 13.4735H16.7178L17.0944 12.792C18.26 12.792 21.3086 12.7562 21.9362 12.0209L21.7927 11.8416L21.2548 11.7699C21.201 11.8237 21.201 11.8954 21.201 11.9492L21.6134 12.003C20.7168 12.2361 18.1524 12.7203 17.3096 12.4334C17.2379 12.3258 17.3096 11.9671 17.3096 11.7161V11.5547C18.4932 11.196 19.3898 10.407 19.7484 9.18759C19.9457 8.48822 19.8202 7.57367 20.2685 7.16122C20.5554 7.17915 20.6271 7.30468 20.8064 7.37641C20.6913 7.23181 20.5349 7.12553 20.3581 7.07156L19.9816 7.32261C19.6229 7.46607 19.2643 7.10742 18.6904 7.37641C18.2242 6.98189 17.9731 6.35425 17.3275 6.12113L17.2558 5.9956L18.0269 5.24244L17.2558 5.95974L16.7537 5.72662L16.7178 5.65489C16.9647 5.45163 17.2537 5.30593 17.5639 5.22838C17.8741 5.15083 18.1977 5.14338 18.5111 5.20657L18.6007 5.3859C18.5649 5.45763 18.529 5.45763 18.5111 5.47556L18.278 5.42176C18.3856 5.47556 18.4752 5.49349 18.5828 5.51143L18.6725 5.42176V5.31417C18.529 5.18864 18.4932 5.08105 18.2062 5.08105L18.3318 4.88379C18.009 5.09898 17.3455 5.17071 17.0227 5.36797L17.7759 4.75826L17.8655 4.65067L16.4668 5.47556C16.1748 5.4604 15.8966 5.3466 15.6778 5.15278H15.606L17.2737 4.04096L17.2379 3.91543L15.355 5.02725L14.7453 4.86586L14.7991 4.32788L19.1387 0.938636H19.2105C19.1922 0.89092 19.1743 0.8431 19.1567 0.795176C18.9773 0.705514 18.3318 1.24349 18.0807 1.40488C17.1303 2.01459 16.2875 2.78569 15.337 3.34159C15.7136 2.83948 16.4309 2.3553 16.5564 1.638L16.3771 1.60214L16.0723 1.85319L16.3951 1.72767C16.0058 2.55476 15.4285 3.27939 14.7094 3.8437L14.6377 3.70024C14.9963 3.10847 15.3191 2.31944 15.1756 1.58421L14.8708 1.40488L14.5659 1.44075C14.7632 1.51248 14.9067 1.53041 15.0501 1.62007C15.1398 2.33737 14.7811 2.83948 14.5839 3.41332C14.5659 3.44919 14.5301 3.44919 14.5121 3.46712C14.3866 3.234 14.3866 3.10847 14.1176 3.07261V2.92915C14.1535 2.83948 14.2252 2.74982 14.2969 2.67809L14.4045 2.58843C14.4404 2.67809 14.4583 2.64223 14.4583 2.76775C14.5121 2.71395 14.5121 2.66016 14.5301 2.58843L14.3687 2.5167L13.9921 2.92915C13.6517 2.67093 13.2606 2.4876 12.8444 2.39117C13.0955 1.85319 13.8845 1.01037 13.49 0.328931C12.9879 -0.513897 11.2843 0.454459 10.6746 1.10003C10.5849 1.18969 10.5132 1.27935 10.4953 1.35108L10.6746 1.20762C11.2843 0.741379 12.9161 -0.334572 13.2748 0.526189C13.6334 1.01037 12.9161 1.96079 12.7368 2.31944C12.0522 2.24191 11.3635 2.20598 10.6746 2.21184C9.95728 2.22978 9.20411 2.31944 8.46888 2.5705C8.11023 2.69602 6.56804 3.61058 6.49631 3.59265L5.79694 2.92915L4.32647 2.19391V2.26564L4.23681 2.3553L6.11972 3.93337L5.8328 4.11269C5.12272 3.50879 4.28149 3.07896 3.37605 2.85741L3.17879 2.89328L5.20517 4.20235L5.34863 4.38168C4.86445 4.57894 4.64926 5.00932 4.25474 5.2783C3.60872 4.94937 2.93703 4.6735 2.2463 4.45341L2.1925 4.6148L3.6271 5.54729H3.71677C3.6271 5.58316 3.53744 5.65489 3.46571 5.70868C3.35812 6.08527 3.12499 6.53358 2.92774 7.08949C2.21044 7.68126 1.27795 7.62746 1.13449 8.82894C0.901363 8.90067 0.73997 8.9186 0.52478 9.06206V9.24139C1.01006 9.56153 1.54255 9.80358 2.10284 9.95869L2.28217 9.77936H2.26423ZM10.836 1.53041L10.9436 1.54834H10.7284C10.836 1.33315 11.1767 1.27935 11.4815 1.29729V1.44075L10.836 1.47661V1.53041ZM11.2843 1.7994L11.5891 1.70973C11.7147 1.49454 11.7864 1.26142 11.7147 1.04623C11.4098 0.992434 11.2305 1.06416 10.9436 1.18969L10.7822 1.44075L10.7284 1.54834L10.7822 1.60214C10.8898 1.6918 10.9974 1.70973 11.2126 1.6918C11.2843 1.7994 11.2126 1.76353 11.105 1.78146L11.2843 1.7994ZM18.7083 4.13062C18.6665 4.14857 18.6247 4.16651 18.5828 4.18442L18.798 4.27408L18.4573 4.90172C18.6366 4.70446 18.8159 4.54307 18.8877 4.23822L18.7083 4.13062ZM16.8434 14.1908C16.7716 14.0473 16.664 13.9576 16.5923 13.9397L16.8434 14.1908ZM15.8212 17.2931L15.5702 17.4365H15.7674L15.8212 17.2931ZM16.8434 14.1908C16.9918 14.3688 17.1032 14.5748 17.171 14.7965C17.2387 15.0182 17.2615 15.2513 17.2379 15.4819C17.5427 14.8543 17.202 14.4597 16.8434 14.1908Z" fill="white"/>
</g>
<defs>
<clipPath id="clip0_344_269">
<rect width="23.9998" height="23.9998" fill="white"/>
</clipPath>
</defs>
</svg>
