<svg width="24" height="24" viewBox="0 0 24 24" fill="none" xmlns="http://www.w3.org/2000/svg">
<g clip-path="url(#clip0_651_532)">
<path d="M1.09862 9.31303L1.27795 9.54615C0.937228 9.54615 0.578578 9.51029 0.52478 9.36683V9.31303C0.704105 9.27716 0.88343 9.27716 1.11655 9.27716L1.09862 9.31303ZM2.92774 10.0662L2.99947 10.3172H2.82014L2.85601 10.0662H2.92774ZM3.57331 11.8953C3.39398 12.0567 3.26845 12.1464 3.17879 12.3974C3.03533 12.2719 2.9636 12.0388 2.9098 11.7877L2.82014 10.9808V10.8552H3.0174L3.51951 11.7877L3.57331 11.8953ZM3.32225 9.56408C3.34533 9.38465 3.36924 9.20532 3.39398 9.02611H3.46571L3.32225 9.56408ZM3.17879 7.23286L4.07542 7.46598V7.51978C3.66297 7.82463 3.26845 7.95016 3.0712 8.524L3.14293 7.26872L3.17879 7.23286ZM4.02162 5.94172C3.96782 6.51556 4.05748 6.76661 4.14715 7.12526C4.32647 7.25079 4.38027 7.30459 4.32647 7.48391C4.05748 7.35839 3.77056 7.21493 3.35812 7.23286L3.32225 7.19699C3.44778 6.74868 3.6809 6.46176 3.84229 6.10311L4.02162 5.92378V5.94172ZM5.33069 5.17062H5.36656C5.24103 5.58307 5.18723 6.56935 4.97204 6.96387C4.452 6.73075 4.46993 5.67273 5.04377 5.26028L5.33069 5.17062ZM4.84652 8.32674L5.2769 8.81092C5.09757 9.33096 4.79272 9.70754 4.64926 10.3172H4.3982C4.18301 9.68961 4.72099 8.70332 4.81065 8.25501L5.2231 8.30881L5.36656 8.66746L4.84652 8.32674ZM6.03006 5.18855C5.9942 5.69066 6.10179 5.94172 6.13766 6.33623L5.36656 6.73075C5.42036 6.08518 5.54588 5.6548 5.72521 5.20648L6.03006 5.18855ZM6.33491 4.41745H6.38871L6.29905 4.65058H6.11972L6.26318 4.50712L6.33491 4.41745ZM6.38871 6.76661C6.13766 6.94594 5.86867 7.0894 5.61761 7.25079C5.63554 6.96387 5.9942 6.56935 6.29905 6.46176L6.37078 6.51556V6.76661H6.38871ZM6.89082 4.99129L6.76529 5.78032L6.62183 5.86999L6.53217 5.95965C6.40664 5.76239 6.35285 5.27821 6.38871 4.91956L6.89082 4.99129ZM7.41086 4.39952V4.43539L7.21361 4.61471C7.07015 4.66851 7.07015 4.66851 6.89082 4.66851L6.96255 4.39952H7.41086ZM7.91297 3.37737L7.69778 3.89741L6.89082 3.82568V3.78982C7.23154 3.64636 7.51846 3.46703 7.91297 3.37737ZM7.50053 4.70437L7.59019 4.66851L7.66192 4.91956C7.57226 4.91956 7.48259 4.8837 7.41086 4.86577L7.50053 4.70437ZM8.16403 5.47547C7.85918 5.601 7.44673 5.56513 7.19567 5.69066L7.15981 5.38581L7.30327 5.18855C7.57226 5.27821 7.84124 5.36788 8.07437 5.47547H8.16403ZM7.51846 5.94172H7.15981V5.85205C7.39293 5.74446 7.80538 5.74446 8.16403 5.69066L7.78745 5.90585L7.51846 5.94172ZM8.41508 5.94172C8.12128 6.05205 7.86157 6.23755 7.66192 6.47969C7.62605 6.22864 8.07437 5.81619 8.28956 5.69066C8.37922 5.78032 8.39715 5.78032 8.43302 5.94172H8.41508ZM8.95306 2.85732L8.93513 2.89319L8.63027 3.07251L8.16403 3.10838V3.07251L8.93513 2.85732H8.95306ZM8.52268 3.62842L8.43302 3.48496C8.64821 3.30564 9.15032 3.3953 9.45517 3.43116L8.52268 3.62842ZM10.8001 2.85732C11.2305 2.89319 11.625 2.98285 11.9119 3.18011H12.0016L11.9478 3.23391L11.5353 3.35943L10.818 3.25184L9.20411 3.01872V2.98285C9.72416 2.87526 10.2801 2.80353 10.818 2.85732H10.8001ZM12.5037 2.71386L12.414 2.83939C12.1731 2.82226 11.9425 2.73499 11.7505 2.58834L12.5037 2.678V2.71386ZM13.8666 3.66429L14.0818 3.59256L14.2969 3.77188C14.2611 3.98707 14.0638 4.1664 13.9024 4.38159H13.7769C13.4362 3.84361 13.0237 3.23391 12.2885 3.01872L12.2526 2.96492L12.5575 2.83939C13.0596 3.01872 13.4541 3.26977 13.9383 3.43116C13.9921 3.57463 13.9742 3.52083 13.8666 3.66429ZM14.4763 4.90163L14.4225 4.8299H14.2969L14.5121 4.65058L14.4763 4.90163ZM14.7094 7.73497C15.068 8.03982 15.1398 8.4702 14.9963 9.02611L14.548 8.05775L14.6915 7.82463V7.7529L14.7094 7.73497ZM14.7991 5.42167V5.47547L14.6197 5.67273L14.548 5.5472C14.6556 5.34994 14.5839 5.45754 14.7273 5.42167H14.7991ZM15.0142 5.42167L15.8212 5.72653V5.79826L15.624 5.94172L14.7991 5.63686V5.56513L15.0142 5.42167ZM16.5923 6.44383L16.144 6.15691L16.0902 6.03138C16.2695 5.92378 16.2516 5.92378 16.4488 5.95965L16.5923 6.44383ZM16.8434 6.35416L16.7537 6.44383C16.6461 6.39003 16.6282 6.3183 16.5923 6.19277L16.8254 6.30037L16.8434 6.35416ZM16.664 5.61893H16.5923L16.8075 5.42167L16.664 5.601V5.61893ZM17.8655 6.91007L17.74 6.96387L17.0586 6.58729L16.8434 6.30037C17.202 6.03138 17.202 6.33623 17.5607 6.49762L17.8655 6.91007ZM18.1345 7.16113L17.8834 7.07146L18.0448 6.9818L18.1345 7.16113ZM17.8297 7.57358C17.9193 7.7529 17.9193 7.71704 18.1345 7.68117L17.7579 8.02189C17.6326 7.77071 17.5071 7.51966 17.3813 7.26872C17.6503 7.19699 17.74 7.30459 18.009 7.34045L18.1166 7.51978L17.8297 7.57358ZM17.8834 8.03982L18.4035 7.7529C18.2959 7.98602 18.1704 8.11155 18.009 8.29088L17.8834 8.03982ZM18.9056 9.02611C18.7621 9.15164 18.6725 9.1875 18.4214 9.20543L18.6366 9.22337V9.25923L17.9193 9.56408L17.8834 8.64953L18.3856 8.05775L18.4752 8.02189L18.9056 9.02611ZM18.6545 7.60944C20.0533 7.21492 19.7843 7.96809 19.1567 8.54193L18.6545 7.60944ZM19.9278 7.7529C19.4077 10.1917 19.318 10.3352 17.471 11.3753L17.3813 11.2318L17.4351 10.9628C18.6366 10.6042 19.318 9.99446 19.2463 8.5778L19.856 7.8067L19.9278 7.7529ZM19.9995 7.7529L19.9278 7.50185H20.1071L19.9995 7.7529ZM16.8613 10.12C16.8724 9.95854 16.8843 9.79714 16.8972 9.63581L17.0765 9.56408H17.0944C17.1482 9.86894 17.0944 10.1021 17.0048 10.3352C16.9151 10.2814 16.8972 10.2635 16.8613 10.12ZM15.8212 12.3616V12.3257L16.1799 11.5187L16.2337 11.3394L16.8254 11.3932L16.8434 11.5187C16.8792 11.8236 16.7716 12.0567 16.664 12.3974L15.8033 12.3616H15.8212ZM16.0902 13.4016C16.0899 13.2343 16.0899 13.0669 16.0902 12.8995L16.5385 12.9354H16.5923L16.3054 13.4196H16.0902V13.4016ZM15.8391 11.7339H15.8571L16.0543 11.6084H16.0902L16.0543 11.716L15.9288 12.1284L15.8212 11.7698V11.7339H15.8391ZM15.4267 13.0251L15.3191 12.8995C15.4267 12.9892 15.355 12.8995 15.4267 13.0251ZM14.7991 12.7202C14.9425 12.6305 15.1039 12.6485 15.3191 12.6485L15.2474 12.8637C15.068 12.9354 15.068 12.8995 14.8529 12.8816L14.7991 12.7023V12.7202ZM15.1218 13.6706L15.3012 14.1369L14.8529 14.4597C14.7273 14.2803 14.8708 13.7424 15.1218 13.6706ZM14.6197 12.0567H14.548L14.6377 11.8774L14.6197 12.0567ZM15.337 12.1284L15.3191 12.1105L15.4267 11.8774H15.4626L15.5702 12.1284H15.355H15.337ZM17.1303 8.77505L17.1124 8.68539C17.167 8.60766 17.2412 8.54579 17.3275 8.50607L17.3634 8.68539L17.202 8.77505H17.1124H17.1303ZM17.1124 9.40269C17.0586 9.47442 16.9689 9.49235 16.933 9.54615L16.8434 8.25501L17.1124 9.40269ZM16.6282 11.1421C16.8075 11.0345 16.8254 11.1421 16.8434 11.3573H16.3413V11.2677L16.6282 11.1421ZM16.3771 10.4248L16.5026 10.3172L16.5923 10.4966L16.5564 10.5862L16.3413 10.5504L16.3771 10.4248ZM16.3413 11.1063L16.0723 11.3573L15.8929 11.3215H15.8212L15.9467 11.1063H16.3413ZM15.3729 10.9628C15.2653 10.8911 15.337 10.8911 15.3191 10.8373L15.3729 10.9628ZM16.1799 9.81514L15.3191 9.36683C15.355 8.77505 15.4267 8.09362 15.3729 7.48391C16.0364 7.73497 16.6282 8.81092 16.1799 9.81514ZM15.5702 9.81514C15.7853 9.92273 15.7674 10.0303 16.0723 10.12C16.1261 10.2993 16.0364 10.371 15.9109 10.5862H15.624C15.5522 10.2276 15.624 10.0483 15.5881 9.81514H15.5702ZM15.624 11.4829C15.5164 11.4111 15.606 11.4111 15.5881 11.3573L15.624 11.4829ZM17.3634 8.99024V8.95438L17.5965 8.79299C17.6324 9.06197 17.6145 9.51029 17.5607 9.83307C17.4172 9.72548 17.3813 9.27716 17.3634 9.00818V8.99024ZM17.3634 9.81514L17.5069 9.54615L17.4172 9.79721H17.3634V9.81514ZM18.8518 9.04404H18.8877C18.8877 10.0303 18.2959 10.2097 17.4889 10.5683H17.3634L17.8655 9.54615L18.8518 9.04404ZM17.3275 7.10733L17.3634 7.17906L17.2917 7.23286L17.1124 6.96387L17.3275 7.10733ZM17.1124 7.53771V7.48391H17.1661L17.3455 7.73497C17.2199 7.68117 17.1841 7.66324 17.1124 7.53771ZM17.3634 8.20121L17.0048 8.524L16.2875 7.44805L15.3191 6.62315L15.5343 6.44383C16.0005 6.65902 16.7896 7.0356 16.9689 7.51978C17.0227 7.66324 16.8434 7.78876 16.9689 7.91429C17.1124 8.07568 17.2558 7.96809 17.3634 8.20121ZM15.2115 9.81514L15.2832 9.83307L15.3191 10.5862L15.1936 10.5504C15.086 10.4786 15.0142 10.0841 15.1039 9.92273L15.2115 9.81514ZM14.6377 11.1063H14.7273L14.7991 11.2856L14.6735 11.3573H14.548L14.6377 11.1063ZM14.4045 15.2308L14.2969 14.8542C14.4643 14.8184 14.6317 14.7825 14.7991 14.7466L14.4045 15.2308ZM14.0459 14.1907C14.0818 14.0472 14.1176 14.0113 14.2073 13.9396L14.279 13.9575L14.2969 14.0293L14.1356 14.1907H14.0459ZM14.1535 14.4597L14.0459 14.3162L14.2969 14.1907L14.2252 14.4417H14.1535V14.4597ZM13.8845 15.6253L13.7948 15.5356H13.8666L14.2611 15.2308L14.2969 15.5356L13.9921 15.7508L13.8845 15.6253ZM13.9204 18.5841C13.2927 18.6021 12.9341 18.4586 12.432 18.4048L11.8581 17.2751L11.7505 17.1675C12.701 17.0419 13.3107 16.5757 14.028 16.2708C14.279 16.504 14.8529 17.7054 14.3507 18.2614C14.2252 18.4407 14.0997 18.4586 13.9204 18.5841ZM11.2664 17.3109L11.4995 17.293C11.8581 17.5261 12.0912 17.9386 12.2526 18.3331L11.2305 18.0282C11.312 17.7977 11.3245 17.5484 11.2664 17.3109ZM10.5491 16.3246L11.6967 16.0019L13.49 16.1812L13.5258 16.2708C12.9879 16.504 12.3782 16.7192 11.7685 17.024C11.087 17.0778 10.9256 16.8447 10.4773 16.6654C10.4773 16.5578 10.5132 16.4502 10.5491 16.3246ZM10.4773 17.5441V17.3289L10.9256 17.293C10.9615 17.4723 10.9974 17.5978 10.9436 17.813L10.4773 17.5441ZM9.95728 17.9565L10.1366 17.8668C10.3339 17.7234 10.4953 17.9027 10.7284 17.9744L10.6387 18.0641L9.95728 17.9565ZM10.4594 17.5441L10.2801 17.4723L10.2083 17.293H10.4773L10.4594 17.5441ZM9.70622 17.5441L9.95728 17.7772L9.92141 18.0641L9.70622 17.562V17.5441ZM9.04272 16.5757C9.27585 16.504 9.59863 16.5219 9.95728 16.5219L9.61656 16.773L8.93513 16.7012L9.04272 16.5757ZM8.43302 3.66429C8.89926 3.19804 10.0828 3.32357 10.3877 3.61049H10.4773C10.0649 3.96914 9.45517 4.02294 9.07859 4.38159C8.79167 4.20226 8.54061 4.0588 8.43302 3.66429ZM11.0332 4.38159L11.2305 4.61471L10.6925 4.65058C10.2621 4.68644 9.84968 4.75817 9.54483 4.90163H9.5269L9.4731 4.81197C9.95054 4.56263 10.4771 4.42179 11.0153 4.39952H11.0512L11.0332 4.38159ZM12.0195 3.09045C12.3602 3.43116 12.8444 3.62842 13.0237 4.13053C12.3244 3.80775 11.2664 3.80775 10.7284 3.30564C10.9467 3.36194 11.1744 3.37188 11.3967 3.33481C11.6191 3.29775 11.8313 3.21451 12.0195 3.09045ZM12.2526 4.90163L13.2031 5.02716H13.2748L12.5216 5.67273C12.3961 5.43961 12.3602 5.11682 12.2526 4.90163ZM13.4721 6.01345L13.2927 5.97758L13.5258 5.94172L13.4721 6.01345ZM13.2927 5.38581L13.5079 5.17062L13.5258 5.42167L13.3465 5.38581H13.2748H13.2927ZM13.741 13.9396H13.6334L13.5258 13.85L13.5976 13.7424C13.6693 13.7424 13.7231 13.7065 13.7769 13.6706L13.741 13.9396ZM13.5438 14.4059L13.6334 14.2983V14.1907L13.7948 14.4238L13.5258 14.4597V14.4059H13.5438ZM13.4362 15.2308L13.2748 15.0514L13.7948 14.9618L13.5438 15.2128H13.4362V15.2308ZM13.5258 16.0019L13.0237 15.9481L13.3824 15.7508L13.5258 16.0019ZM13.1672 15.2846L13.2748 15.3742L12.9161 15.4639L12.5037 15.4818L13.0596 15.2308L13.1672 15.2666V15.2846ZM11.7326 4.13053C12.0375 4.13053 12.3602 4.2202 12.5037 4.38159C12.3064 4.38159 11.9299 4.39952 11.8402 4.23813L11.7505 4.13053H11.7326ZM12.0016 5.17062C12.145 5.29615 12.1988 5.43961 12.1809 5.67273C11.9478 5.601 12.0016 5.34994 12.0016 5.17062ZM12.2526 6.78454V6.74868C12.7727 6.64108 12.8803 6.80248 12.6472 6.96387C12.4985 6.95283 12.3587 6.88926 12.2526 6.78454ZM12.9161 13.4196L13.0237 13.4554V13.4913L12.7727 13.6706L12.8623 13.4196H12.9161ZM12.7727 7.12526L12.952 6.96387L13.0237 7.23286L12.7727 7.17906V7.12526ZM13.5258 14.0293L12.9161 14.1907H12.7727V14.1727C12.9638 14.1432 13.1435 14.0627 13.2927 13.9396L13.5079 13.9755L13.5258 14.0293ZM13.0955 13.4196L13.0237 13.2761L13.2031 13.1685L13.2748 13.2044L13.1672 13.4196H13.0955ZM11.4815 15.2128L11.7864 14.9618L12.7368 15.0514L12.7727 15.1232L12.1271 15.4818C11.9143 15.453 11.7179 15.3517 11.5712 15.1949H11.4815V15.2128ZM11.0153 15.2128L11.4815 15.4818L10.7284 15.3563L11.0153 15.2308V15.2128ZM10.9794 15.7508V15.8225L10.836 15.8943H10.7284V15.8405C10.836 15.697 10.818 15.7508 10.9794 15.7508ZM9.77796 5.24235L9.70622 5.18855C10.0353 5.04656 10.3881 4.96749 10.7463 4.95543L11.625 4.91956L11.7505 5.69066L10.7463 5.601C10.447 5.5871 10.147 5.5991 9.84969 5.63686L9.77796 5.27821V5.24235ZM10.1366 15.6073L10.2083 15.7149L10.1545 15.9481L9.43724 16.0019C9.5269 15.7687 9.6345 15.6611 9.76002 15.4818L10.1545 15.6073H10.1366ZM9.27584 14.7107C8.95306 14.7107 8.52268 14.4597 8.43302 14.1907L9.45517 14.4597L9.27584 14.7107ZM9.63449 14.7107H9.45517V14.6569L9.67036 14.4597L9.63449 14.6928V14.7107ZM8.93513 5.26028L9.23998 5.17062L9.45517 5.40374H9.23998L8.93513 5.26028ZM8.93513 16.3426L8.88133 16.5219H8.8096L8.68407 16.2529L8.93513 16.2888V16.3426ZM9.07859 15.2308L9.67036 15.3563L9.70622 15.428L9.23998 16.0019L8.68407 15.9122L9.07859 15.2308ZM13.5258 7.1432L13.6514 6.96387H13.6872L14.01 7.05353L14.0459 7.0894L13.6872 7.23286L13.5258 7.1432ZM14.2252 6.30037L14.0459 6.19277C14.2252 6.2645 14.1176 6.19277 14.2252 6.30037ZM14.1714 7.48391L14.0459 7.37632L14.2969 7.23286L14.1714 7.48391ZM14.0459 9.27716C14.1714 9.33096 14.2969 9.34889 14.4404 9.38476C14.548 9.43856 14.548 9.43856 14.548 9.56408C14.3687 9.49235 14.0997 9.43856 14.0459 9.2951V9.27716ZM14.0818 8.59573C14.0818 8.55986 14.1176 8.54193 14.1356 8.524L14.2969 8.77505C14.2073 8.77505 14.1176 8.73919 14.0459 8.72126L14.0818 8.59573ZM8.91719 17.0778L8.93513 17.1495L8.59441 17.2751L8.41508 17.293V17.2571L8.54061 17.0778C8.71994 17.0061 8.71994 17.0419 8.89926 17.0778H8.91719ZM8.16403 4.13053C8.39715 4.30986 8.45095 4.48918 8.41508 5.17062C8.27162 4.99129 8.18196 4.57885 8.16403 4.13053ZM8.32542 3.61049L8.30749 3.78982L8.16403 3.80775L8.32542 3.62842V3.61049ZM8.16403 3.87948V4.0588L7.91297 4.02294L8.11023 3.87948H8.16403ZM8.16403 18.8352L8.28956 17.5261L9.18618 17.293L8.25369 18.7993L8.16403 18.8352ZM8.23576 15.3025L8.37922 15.2308C8.50475 15.3742 8.37922 15.5894 8.27162 15.7508C8.16403 15.6432 8.16403 15.5894 8.18196 15.3921L8.23576 15.3025ZM7.41086 15.177L7.69778 14.7107L8.16403 14.9797L7.67985 15.7508C7.52594 15.5968 7.43078 15.3938 7.41086 15.177ZM7.41086 17.2033L7.87711 16.773L8.0923 16.7909L8.16403 16.9164L8.11023 17.293L7.39293 17.2033H7.41086ZM6.63977 16.8447L7.19567 16.5219L7.62605 16.5936L7.66192 16.6474L7.21361 17.0419C7.03876 17.028 6.87118 16.9659 6.72943 16.8626H6.63977V16.8447ZM6.56804 16.3605L6.76529 16.2529L6.85496 16.2708L6.89082 16.3246L6.29905 16.504L6.11972 16.4502L6.56804 16.3605ZM5.86867 16.1095L6.03006 15.7508C6.29905 15.7149 6.37078 15.8584 6.56804 15.9301L6.63977 16.0377L6.33491 16.235L6.06593 16.2529L5.8866 16.1095H5.86867ZM5.36656 17.1854L5.72521 16.5219C5.97626 16.5219 6.01213 16.5219 6.11972 16.6654C6.15559 16.7371 6.11972 16.7012 6.03006 16.7192L5.9942 16.9523L6.38871 17.0061C6.31698 17.1854 6.29905 17.1854 6.17352 17.293C5.81487 17.293 5.63555 17.2392 5.36656 17.1675V17.1854ZM4.93618 16.2529L5.58175 16.4502L5.61761 16.5398L5.2231 17.024L4.61339 16.8268L4.95411 16.235L4.93618 16.2529ZM2.42563 15.5715L2.44356 15.4818L2.80221 15.7687L2.83807 15.8405C2.08491 16.4143 3.23259 18.3151 4.54166 17.0957L5.1155 17.3109C4.90031 17.6875 4.52373 17.8489 4.12921 18.0641C3.19672 18.1358 1.88765 16.6295 2.44356 15.5535L2.42563 15.5715ZM3.32225 15.8225V16.0019L3.10706 15.8405L3.0712 15.7508L3.30432 15.8225H3.32225ZM4.59546 16.9164L4.12921 17.2751C3.21466 17.3827 2.83807 16.7371 2.82014 15.966L2.99947 15.7508H3.0712C3.53744 16.1095 3.94989 16.6474 4.55959 16.8447L4.59546 16.9164ZM3.69883 13.1506C3.6271 13.0968 3.6271 13.0789 3.57331 12.9713L3.75263 12.3078L3.94989 12.1284L4.09335 12.3078L3.71677 13.1685L3.69883 13.1506ZM3.57331 13.3837L3.98575 12.4333L4.05748 12.3974C4.23681 12.7202 4.52373 12.8637 4.59546 13.294L3.98575 13.9396C3.80643 13.7962 3.6809 13.6168 3.57331 13.4016V13.3837ZM4.3444 14.1727L4.86445 13.6706L5.1155 14.2086L4.3444 14.1727ZM5.61761 8.97231C5.38449 9.47442 5.06171 9.83307 4.86445 10.3172C4.77479 9.86894 5.29483 9.22337 5.45622 8.82885L5.52795 8.77505L5.61761 8.95438V8.97231ZM5.61761 7.53771C5.95983 7.42454 6.26814 7.22722 6.51424 6.96387L6.63977 7.32252L6.31698 7.73497L5.61761 7.55564V7.53771ZM6.89082 7.57358L6.76529 7.7529L6.63977 7.71703V7.6991L6.87289 7.48391L6.89082 7.57358ZM6.7115 6.46176H6.72943L6.90875 6.78454L6.83702 6.96387C6.6039 6.83834 6.6039 6.69488 6.69356 6.46176H6.7115ZM6.63977 13.9396L6.89082 14.1189L6.63977 13.9934V13.9396ZM6.63977 14.1907C6.72356 14.2383 6.80724 14.2861 6.89082 14.3341L6.35285 14.7107C6.19145 14.639 6.17352 14.4955 6.13766 14.3521V14.3162L6.63977 14.1907ZM5.8866 13.6706L6.13766 13.7782L5.9942 13.85H5.86867L5.8866 13.6706ZM5.8866 8.524C6.17352 8.59573 6.08386 8.54193 6.10179 8.77505C5.95833 8.68539 5.9404 8.64953 5.86867 8.524H5.8866ZM5.8866 13.1327V12.8995C6.01213 12.9892 6.06593 13.043 6.13766 13.1685L5.86867 13.1327H5.8866ZM6.38871 9.9048C6.28112 10.0303 6.29905 9.99446 6.13766 10.0662L6.24525 9.81514L6.38871 9.9048ZM6.38871 8.86472L6.20939 9.04404C6.06593 8.93645 6.13766 8.97231 6.20939 8.81092L6.31698 8.77505L6.38871 8.86472ZM6.37078 8.43434L6.11972 8.23708C6.29905 8.30881 6.24525 8.27294 6.35285 8.4164L6.37078 8.43434ZM5.86867 13.1685L6.13766 13.3658C5.9942 13.3658 5.92247 13.3299 5.86867 13.1685ZM6.63977 13.1685H6.53217L6.44251 12.9892C6.42447 12.9654 6.40654 12.9415 6.38871 12.9175H6.53217L6.63977 13.1506V13.1685ZM6.49631 8.38054L6.38871 8.25501C6.49631 8.34467 6.42458 8.25501 6.49631 8.38054ZM6.51424 12.6305L6.38871 12.3616C6.38871 12.2719 6.42458 12.2002 6.44251 12.1284H6.47837L6.63977 12.6485L6.51424 12.6305ZM5.85074 15.6253L5.86867 15.6611L5.77901 16.0019C5.59968 15.9301 5.42036 15.7329 5.36656 15.4818L5.85074 15.6253ZM5.1155 16.0019L5.36656 16.235C5.18723 16.1632 5.18723 16.1632 5.1155 16.0019ZM5.54588 13.7065L5.58175 13.9396L5.36656 13.6706L5.54588 13.7065ZM5.29483 14.9259L5.1155 14.4597C5.33069 14.5314 5.51002 14.8004 5.61761 14.9618L5.29483 14.9259ZM5.49209 10.3172H5.56382L5.38449 10.5862C5.34863 10.5145 5.38449 10.4607 5.49209 10.389V10.3172ZM5.36656 12.5409L5.31276 12.6485L5.1693 12.5409L5.1155 12.4154L5.29483 12.3974L5.36656 12.5409ZM3.57331 14.7107C4.09335 15.0514 4.95411 15.3563 5.1155 16.0019C4.50554 15.7011 3.97666 15.2583 3.57331 14.7107ZM4.90031 14.4597L5.1155 14.7107L4.59546 14.4597H4.90031ZM6.76529 15.2308L6.38871 14.8362L7.07015 14.1907L7.15981 14.908L6.76529 15.2308ZM7.15981 15.6611L7.21361 15.4818H7.30327L7.41086 15.7508L7.15981 15.6611ZM7.50053 14.7107L7.41086 14.4597C7.46466 14.4597 7.53639 14.4597 7.59019 14.4955L7.50053 14.7107ZM7.14188 6.01345L7.41086 5.94172L7.23154 6.19277L7.15981 6.01345H7.14188ZM4.59546 11.3573L4.36234 10.8373C4.66719 10.909 4.61339 11.1242 4.59546 11.3573ZM3.96782 11.6084C3.75263 11.4649 3.60917 11.1601 3.60917 10.8373C4.03955 10.9449 4.02162 11.1242 4.11128 11.5367L3.96782 11.6084ZM3.69883 10.2635C3.37605 9.9586 3.86023 8.73919 4.05748 8.45227C4.18301 8.30881 4.30854 8.30881 4.48787 8.27294L4.61339 8.29088C4.30854 8.82885 4.11128 9.56408 4.02162 10.3172L3.69883 10.2635ZM3.23259 14.4597L3.39398 14.7107L3.25052 15.0335L3.16086 15.1232C3.28639 15.1411 3.30432 15.0335 3.48364 14.908C3.80643 15.4459 4.30854 15.9481 4.86445 16.235C4.77479 16.4143 4.68512 16.5936 4.55959 16.773L3.64504 16.1812C3.53744 16.0019 3.6809 15.7687 3.51951 15.6432C3.35812 15.5356 3.16086 15.697 3.0174 15.6432L2.56909 15.2487C2.69461 14.9618 2.82014 14.6928 3.0712 14.5314L3.23259 14.4597ZM2.33596 11.6084C2.38618 11.3476 2.45206 11.0901 2.53322 10.8373L2.65875 11.6084L2.73048 12.0029L3.34018 13.6706C2.85601 13.4196 2.55115 12.8099 2.60495 11.985C2.47942 12.254 2.58702 12.6664 2.60495 12.8816C2.31803 12.6485 2.28217 12.1464 2.3539 11.6084H2.33596ZM1.90558 11.8774L1.81592 11.5546V11.1242L1.86972 11.0345L2.04904 10.8552L1.95938 11.5725L1.90558 11.8774ZM19.6588 14.4597L19.1567 14.2624L19.6588 14.1907V14.4597ZM6.17352 18.6379L6.29905 18.5662L6.15559 18.8173V18.6379H6.17352ZM2.3001 9.81514L2.08491 9.77927C1.93522 9.71453 1.80602 9.61019 1.71122 9.47747C1.61643 9.34476 1.55963 9.18871 1.54693 9.02611C1.95938 9.06197 2.08491 9.25923 2.3001 9.51029V9.81514ZM2.26423 9.77927C2.3001 9.2413 1.86972 8.88265 1.31381 8.88265C1.42141 8.11155 2.10284 7.71703 2.71255 7.44805H2.82014C2.73048 8.4164 2.80221 9.27716 2.42563 10.12C2.15664 10.7476 1.18828 10.7297 1.24208 11.6981V11.7877C1.38554 13.0609 2.78428 13.3299 2.98153 14.4597C0.919296 15.4997 3.44778 19.9291 5.07964 17.3289C5.36656 17.3827 5.63555 17.5082 6.01213 17.3827C6.17352 17.293 6.19145 17.2033 6.28112 17.024L6.85496 17.3109L6.89082 17.4006C6.35285 17.813 5.97626 18.3869 5.40242 18.7635C5.40242 18.7097 5.43829 18.6559 5.45622 18.62L5.29483 18.5841L5.2231 18.62L5.15137 18.9787C5.47415 19.3194 6.47837 18.1 6.76529 17.8668C6.58597 18.4407 6.19145 18.7276 5.95833 19.2656L6.03006 19.3373C6.46044 19.0324 6.99842 18.1538 7.07015 17.4903L7.71572 17.5978C6.59086 19.1544 5.25044 20.5431 3.7347 21.7223C3.91402 21.2023 4.16508 20.8257 4.30854 20.3774H4.21888L4.14715 20.3236C3.89609 20.8436 3.44778 21.2202 3.37605 21.9196L3.55537 22.0989C4.84652 21.8837 7.01635 18.62 8.0385 17.7234C7.76951 20.5388 6.26318 20.9692 4.95411 22.6727C6.13766 22.081 6.87289 20.5746 7.87711 19.7318C7.76951 20.9154 7.48259 23.5335 6.80116 23.9998H6.90875C7.69778 23.4976 7.73365 21.4892 7.9847 20.4491L8.11023 19.3732L9.23998 17.7951C9.27585 17.7951 9.29378 17.7592 9.32964 17.7413C9.45517 18.1538 10.029 18.5662 10.6387 18.4586L11.087 18.2793L12.1988 18.6917C12.3423 20.3057 12.2885 21.2023 11.2664 22.4038C12.3064 21.8658 12.701 19.8394 12.3423 18.7635C14.7632 19.0324 14.6735 18.2255 14.2073 16.4681H14.6377C14.548 16.3605 14.3328 16.4502 14.1714 16.3605C14.0997 16.3067 14.1176 16.3246 14.0818 16.2529C14.6556 15.6073 16.0364 16.2529 15.7315 17.3289C16.144 16.4322 15.2653 15.6432 14.4045 15.9481C14.7632 15.5356 15.2115 15.177 15.4446 14.6031L15.5164 14.5673L17.5069 16.6474H17.6324L17.7221 16.5219L15.8212 14.2803C15.9997 14.2067 16.1791 14.1349 16.3592 14.0651L16.2695 14.0113C17.2917 14.1189 18.5828 14.9618 19.6408 14.6928C19.7305 14.5135 19.7484 14.4238 19.6767 14.2624C20.8064 14.2803 22.8328 13.9038 23.4784 13.3658C21.7468 13.7378 19.9667 13.8287 18.2062 13.6348L16.7896 13.4734H16.7178L17.0944 12.7919C18.26 12.7919 21.3086 12.7561 21.9362 12.0208L21.7927 11.8415L21.2548 11.7698C21.201 11.8236 21.201 11.8953 21.201 11.9491L21.6134 12.0029C20.7168 12.236 18.1524 12.7202 17.3096 12.4333C17.2379 12.3257 17.3096 11.967 17.3096 11.716V11.5546C18.4932 11.1959 19.3898 10.4069 19.7484 9.1875C19.9457 8.48813 19.8202 7.57358 20.2685 7.16113C20.5554 7.17906 20.6271 7.30459 20.8064 7.37632C20.6913 7.23172 20.5349 7.12544 20.3581 7.07146L19.9816 7.32252C19.6229 7.46598 19.2643 7.10733 18.6904 7.37632C18.2242 6.9818 17.9731 6.35416 17.3275 6.12104L17.2558 5.99551L18.0269 5.24235L17.2558 5.95965L16.7537 5.72653L16.7178 5.6548C16.9647 5.45154 17.2537 5.30584 17.5639 5.22829C17.8741 5.15074 18.1977 5.14329 18.5111 5.20648L18.6007 5.38581C18.5649 5.45754 18.529 5.45754 18.5111 5.47547L18.278 5.42167C18.3856 5.47547 18.4752 5.4934 18.5828 5.51134L18.6725 5.42167V5.31408C18.529 5.18855 18.4932 5.08096 18.2062 5.08096L18.3318 4.8837C18.009 5.09889 17.3455 5.17062 17.0227 5.36788L17.7759 4.75817L17.8655 4.65058L16.4668 5.47547C16.1748 5.46031 15.8966 5.34651 15.6778 5.15269H15.606L17.2737 4.04087L17.2379 3.91534L15.355 5.02716L14.7453 4.86577L14.7991 4.32779L19.1387 0.938546H19.2105C19.1922 0.89083 19.1743 0.843009 19.1567 0.795086C18.9773 0.705423 18.3318 1.2434 18.0807 1.40479C17.1303 2.0145 16.2875 2.78559 15.337 3.3415C15.7136 2.83939 16.4309 2.35521 16.5564 1.63791L16.3771 1.60205L16.0723 1.8531L16.3951 1.72758C16.0058 2.55467 15.4285 3.2793 14.7094 3.84361L14.6377 3.70015C14.9963 3.10838 15.3191 2.31935 15.1756 1.58412L14.8708 1.40479L14.5659 1.44066C14.7632 1.51239 14.9067 1.53032 15.0501 1.61998C15.1398 2.33728 14.7811 2.83939 14.5839 3.41323C14.5659 3.4491 14.5301 3.4491 14.5121 3.46703C14.3866 3.23391 14.3866 3.10838 14.1176 3.07251V2.92905C14.1535 2.83939 14.2252 2.74973 14.2969 2.678L14.4045 2.58834C14.4404 2.678 14.4583 2.64213 14.4583 2.76766C14.5121 2.71386 14.5121 2.66007 14.5301 2.58834L14.3687 2.51661L13.9921 2.92905C13.6517 2.67084 13.2606 2.4875 12.8444 2.39108C13.0955 1.8531 13.8845 1.01028 13.49 0.328841C12.9879 -0.513987 11.2843 0.454368 10.6746 1.09994C10.5849 1.1896 10.5132 1.27926 10.4953 1.35099L10.6746 1.20753C11.2843 0.741288 12.9161 -0.334662 13.2748 0.526098C13.6334 1.01028 12.9161 1.9607 12.7368 2.31935C12.0522 2.24182 11.3635 2.20588 10.6746 2.21175C9.95728 2.22969 9.20411 2.31935 8.46888 2.5704C8.11023 2.69593 6.56804 3.61049 6.49631 3.59256L5.79694 2.92905L4.32647 2.19382V2.26555L4.23681 2.35521L6.11972 3.93328L5.8328 4.1126C5.12272 3.5087 4.28149 3.07887 3.37605 2.85732L3.17879 2.89319L5.20517 4.20226L5.34863 4.38159C4.86445 4.57885 4.64926 5.00923 4.25474 5.27821C3.60872 4.94928 2.93703 4.67341 2.2463 4.45332L2.1925 4.61471L3.6271 5.5472H3.71677C3.6271 5.58307 3.53744 5.6548 3.46571 5.70859C3.35812 6.08518 3.12499 6.53349 2.92774 7.0894C2.21044 7.68117 1.27795 7.62737 1.13449 8.82885C0.901363 8.90058 0.73997 8.91851 0.52478 9.06197V9.2413C1.01006 9.56144 1.54255 9.80349 2.10284 9.9586L2.28217 9.77927H2.26423ZM10.836 1.53032L10.9436 1.54825H10.7284C10.836 1.33306 11.1767 1.27926 11.4815 1.2972V1.44066L10.836 1.47652V1.53032ZM11.2843 1.79931L11.5891 1.70964C11.7147 1.49445 11.7864 1.26133 11.7147 1.04614C11.4098 0.992344 11.2305 1.06407 10.9436 1.1896L10.7822 1.44066L10.7284 1.54825L10.7822 1.60205C10.8898 1.69171 10.9974 1.70964 11.2126 1.69171C11.2843 1.79931 11.2126 1.76344 11.105 1.78137L11.2843 1.79931ZM18.7083 4.13053C18.6665 4.14848 18.6247 4.16642 18.5828 4.18433L18.798 4.27399L18.4573 4.90163C18.6366 4.70437 18.8159 4.54298 18.8877 4.23813L18.7083 4.13053ZM16.8434 14.1907C16.7716 14.0472 16.664 13.9575 16.5923 13.9396L16.8434 14.1907ZM15.8212 17.293L15.5702 17.4365H15.7674L15.8212 17.293ZM16.8434 14.1907C16.9919 14.3687 17.1032 14.5747 17.171 14.7964C17.2387 15.0181 17.2615 15.2512 17.2379 15.4818C17.5427 14.8542 17.202 14.4597 16.8434 14.1907Z" fill="white"/>
</g>
<defs>
<clipPath id="clip0_651_532">
<rect width="23.9998" height="23.9998" fill="white"/>
</clipPath>
</defs>
</svg>
