<svg width="24" height="24" viewBox="0 0 24 24" fill="none" xmlns="http://www.w3.org/2000/svg">
<g clip-path="url(#clip0_344_271)">
<path fill-rule="evenodd" clip-rule="evenodd" d="M3.25311 3.08955V9.96789C4.30033 8.71932 5.5553 8.09024 7.01151 8.09024C7.7612 8.09024 8.43357 8.23278 9.03467 8.51763C9.63897 8.79962 10.091 9.16224 10.3948 9.60219C10.7016 10.0453 10.9092 10.5317 11.0205 11.0677C11.1324 11.6008 11.1882 12.431 11.1882 13.5557V20.9111H7.93481V14.2869C7.93481 12.9733 7.87576 12.1397 7.75195 11.7864C7.62803 11.4303 7.41103 11.1513 7.0982 10.9437C6.78515 10.7331 6.39488 10.6276 5.92398 10.6276C5.38489 10.6276 4.90143 10.764 4.48021 11.0305C4.05282 11.3001 3.74285 11.7029 3.54766 12.242C3.34917 12.7812 3.24992 13.5774 3.25322 14.6309L3.24992 20.9112H-0.00012207V3.08955H3.25311ZM16.0649 3.08955V9.96789C17.1118 8.71932 18.3669 8.09024 19.8229 8.09024C20.5697 8.09024 21.2449 8.23278 21.8495 8.51763C22.4503 8.79962 22.9027 9.16224 23.2062 9.60219C23.513 10.0453 23.7206 10.5317 23.8322 11.0677C23.9438 11.6008 23.9996 12.431 23.9996 13.5557V20.9111H20.7493V14.2869C20.7493 12.9733 20.6876 12.1397 20.5634 11.7864C20.4394 11.4303 20.2227 11.1513 19.9096 10.9437C19.5997 10.7331 19.2061 10.6276 18.7353 10.6276C18.1961 10.6276 17.7129 10.764 17.2915 11.0305C16.8672 11.3001 16.5573 11.7029 16.3588 12.242C16.1636 12.7812 16.0647 13.5774 16.0647 14.6309V20.9112H12.8144V3.08955H16.0649Z" fill="white"/>
</g>
<defs>
<clipPath id="clip0_344_271">
<rect width="23.9998" height="23.9998" fill="white"/>
</clipPath>
</defs>
</svg>
