<svg width="24" height="24" viewBox="0 0 24 24" fill="none" xmlns="http://www.w3.org/2000/svg">
<g clip-path="url(#clip0_651_534)">
<path fill-rule="evenodd" clip-rule="evenodd" d="M3.25311 3.08936V9.9677C4.30033 8.71913 5.5553 8.09005 7.01151 8.09005C7.7612 8.09005 8.43357 8.23258 9.03468 8.51744C9.63897 8.79943 10.091 9.16205 10.3948 9.602C10.7016 10.0451 10.9092 10.5315 11.0205 11.0675C11.1324 11.6006 11.1882 12.4308 11.1882 13.5555V20.9109H7.93481V14.2867C7.93481 12.9731 7.87576 12.1395 7.75195 11.7862C7.62803 11.4301 7.41103 11.1511 7.0982 10.9435C6.78515 10.7329 6.39488 10.6274 5.92398 10.6274C5.38489 10.6274 4.90143 10.7638 4.48021 11.0303C4.05282 11.2999 3.74285 11.7027 3.54766 12.2418C3.34917 12.781 3.24992 13.5772 3.25322 14.6307L3.24992 20.911H-0.00012207V3.08936H3.25311ZM16.0649 3.08936V9.9677C17.1118 8.71913 18.3669 8.09005 19.8229 8.09005C20.5697 8.09005 21.2449 8.23258 21.8495 8.51744C22.4503 8.79943 22.9027 9.16205 23.2062 9.602C23.513 10.0451 23.7206 10.5315 23.8322 11.0675C23.9438 11.6006 23.9996 12.4308 23.9996 13.5555V20.9109H20.7493V14.2867C20.7493 12.9731 20.6876 12.1395 20.5634 11.7862C20.4394 11.4301 20.2227 11.1511 19.9096 10.9435C19.5997 10.7329 19.2061 10.6274 18.7353 10.6274C18.1961 10.6274 17.7129 10.7638 17.2915 11.0303C16.8672 11.2999 16.5573 11.7027 16.3588 12.2418C16.1636 12.781 16.0647 13.5772 16.0647 14.6307V20.911H12.8144V3.08936H16.0649Z" fill="white"/>
</g>
<defs>
<clipPath id="clip0_651_534">
<rect width="23.9998" height="23.9998" fill="white"/>
</clipPath>
</defs>
</svg>
