<svg width="24" height="24" viewBox="0 0 24 24" fill="none" xmlns="http://www.w3.org/2000/svg">
<g clip-path="url(#clip0_651_523)">
<path fill-rule="evenodd" clip-rule="evenodd" d="M23.9998 23.9998H19.0686V15.6008C19.0686 13.2981 18.1936 12.0112 16.3709 12.0112C14.3881 12.0112 13.3522 13.3504 13.3522 15.6008V23.9998H8.59991V7.99992H13.3522V10.1551C13.3522 10.1551 14.7811 7.5111 18.1764 7.5111C21.5701 7.5111 23.9998 9.5835 23.9998 13.8696V23.9998ZM2.93044 5.90487C1.3117 5.90487 0 4.58287 0 2.95243C0 1.322 1.3117 0 2.93044 0C4.54917 0 5.8601 1.322 5.8601 2.95243C5.8601 4.58287 4.54917 5.90487 2.93044 5.90487ZM0.476557 23.9998H5.43198V7.99992H0.476557V23.9998Z" fill="white"/>
</g>
<defs>
<clipPath id="clip0_651_523">
<rect width="23.9998" height="23.9998" fill="white"/>
</clipPath>
</defs>
</svg>
