<svg width="24" height="24" viewBox="0 0 24 24" fill="none" xmlns="http://www.w3.org/2000/svg">
<g clip-path="url(#clip0_344_264)">
<path d="M5.85321 13.3787L8.48811 20.6717C8.48811 20.6717 8.81754 21.3541 9.17029 21.3541C9.52304 21.3541 14.7697 15.8959 14.7697 15.8959L20.6042 4.62675L5.94723 11.4961L5.85321 13.3787Z" fill="#C8DAEA"/>
<path d="M9.34712 15.2487L8.84132 20.6244C8.84132 20.6244 8.62959 22.2715 10.2764 20.6244C11.9232 18.9772 13.4994 17.7071 13.4994 17.7071" fill="#A9C6D8"/>
<path d="M5.9007 13.6392L0.480623 11.8733C0.480623 11.8733 -0.167136 11.6105 0.041442 11.0145C0.0843791 10.8916 0.170993 10.7871 0.430097 10.6074C1.63104 9.77027 22.6586 2.2124 22.6586 2.2124C22.6586 2.2124 23.2523 2.01234 23.6025 2.14541C23.6891 2.17222 23.767 2.22157 23.8283 2.28839C23.8896 2.35522 23.9321 2.43712 23.9513 2.52574C23.9892 2.68225 24.005 2.84327 23.9983 3.00415C23.9967 3.14333 23.9798 3.27232 23.9671 3.47461C23.839 5.54096 20.0065 20.9628 20.0065 20.9628C20.0065 20.9628 19.7772 21.8652 18.9556 21.8961C18.7537 21.9026 18.5526 21.8685 18.3642 21.7956C18.1758 21.7227 18.004 21.6126 17.8591 21.4719C16.2469 20.0852 10.6747 16.3404 9.44338 15.5168C9.41561 15.4979 9.39222 15.4732 9.37479 15.4445C9.35736 15.4158 9.34629 15.3836 9.34233 15.3502C9.32512 15.2634 9.41951 15.1559 9.41951 15.1559C9.41951 15.1559 19.1222 6.53147 19.3804 5.62609C19.4004 5.55595 19.3249 5.52134 19.2234 5.55206C18.579 5.78914 7.40757 12.844 6.17461 13.6226C6.08586 13.6494 5.99205 13.6551 5.9007 13.6392Z" fill="white"/>
</g>
<defs>
<clipPath id="clip0_344_264">
<rect width="23.9998" height="23.9998" fill="white"/>
</clipPath>
</defs>
</svg>
