<svg width="24" height="24" viewBox="0 0 24 24" fill="none" xmlns="http://www.w3.org/2000/svg">
<g clip-path="url(#clip0_651_527)">
<path d="M5.85327 13.3789L8.48817 20.6719C8.48817 20.6719 8.8176 21.3543 9.17035 21.3543C9.5231 21.3543 14.7698 15.8961 14.7698 15.8961L20.6042 4.62695L5.94729 11.4963L5.85327 13.3789Z" fill="#C8DAEA"/>
<path d="M9.34706 15.2485L8.84126 20.6242C8.84126 20.6242 8.62953 22.2713 10.2763 20.6242C11.9231 18.977 13.4994 17.7069 13.4994 17.7069" fill="#A9C6D8"/>
<path d="M5.90088 13.6391L0.480806 11.8731C0.480806 11.8731 -0.166953 11.6103 0.0416251 11.0144C0.0845622 10.8915 0.171177 10.7869 0.43028 10.6072C1.63122 9.77014 22.6588 2.21228 22.6588 2.21228C22.6588 2.21228 23.2525 2.01221 23.6026 2.14528C23.6893 2.17209 23.7672 2.22144 23.8285 2.28826C23.8898 2.35509 23.9323 2.43699 23.9515 2.52561C23.9893 2.68212 24.0052 2.84314 23.9985 3.00402C23.9969 3.1432 23.98 3.27219 23.9672 3.47448C23.8392 5.54083 20.0067 20.9627 20.0067 20.9627C20.0067 20.9627 19.7774 21.8651 18.9558 21.896C18.7539 21.9025 18.5528 21.8683 18.3644 21.7954C18.176 21.7226 18.0042 21.6125 17.8592 21.4718C16.2471 20.085 10.6749 16.3403 9.44357 15.5167C9.41579 15.4978 9.3924 15.4731 9.37497 15.4444C9.35754 15.4156 9.34647 15.3835 9.34252 15.3501C9.3253 15.2633 9.41969 15.1558 9.41969 15.1558C9.41969 15.1558 19.1224 6.53135 19.3806 5.62596C19.4005 5.55582 19.325 5.52121 19.2236 5.55194C18.5792 5.78902 7.40775 12.8438 6.17479 13.6225C6.08604 13.6493 5.99223 13.655 5.90088 13.6391Z" fill="white"/>
</g>
<defs>
<clipPath id="clip0_651_527">
<rect width="23.9998" height="23.9998" fill="white"/>
</clipPath>
</defs>
</svg>
