<svg width="24" height="24" viewBox="0 0 24 24" fill="none" xmlns="http://www.w3.org/2000/svg">
<g clip-path="url(#clip0_344_337)">
<path opacity="0.4" fill-rule="evenodd" clip-rule="evenodd" d="M16.9927 7.75736C16.9927 7.34314 16.6569 7.00736 16.2427 7.00736L10.5858 7.00736C10.1716 7.00736 9.83583 7.34314 9.83583 7.75736C9.83583 8.17157 10.1716 8.50736 10.5858 8.50736L14.432 8.50736L7.22708 15.7123C6.93418 16.0052 6.93418 16.4801 7.22708 16.773C7.51997 17.0659 7.99484 17.0659 8.28774 16.773L15.4927 9.56802L15.4927 13.4142C15.4927 13.8284 15.8285 14.1642 16.2427 14.1642C16.6569 14.1642 16.9927 13.8284 16.9927 13.4142V7.75736Z" fill="#F1F1F4"/>
<path d="M16.2427 7.00736C16.6569 7.00736 16.9927 7.34314 16.9927 7.75736L16.9927 13.4142C16.9927 13.8284 16.6569 14.1642 16.2427 14.1642C15.8285 14.1642 15.4927 13.8284 15.4927 13.4142L15.5167 8.48694L10.5858 8.50736C10.1716 8.50736 9.83582 8.17157 9.83582 7.75736C9.83582 7.34314 10.1716 7.00736 10.5858 7.00736H16.2427Z" fill="#F1F1F4"/>
</g>
<defs>
<clipPath id="clip0_344_337">
<rect width="24" height="24" fill="white"/>
</clipPath>
</defs>
</svg>
