<svg width="24" height="24" viewBox="0 0 24 24" fill="none" xmlns="http://www.w3.org/2000/svg">
<path d="M3.28028 10.7995V11.1969C3.00129 10.8756 2.58702 10.6812 2.02058 10.6812C0.913067 10.6812 0 11.6534 0 12.9131C0 14.1728 0.913067 15.145 2.02058 15.145C2.58702 15.145 3.00129 14.9506 3.28028 14.6293V15.0267H4.54843V10.7995H3.28028ZM2.27421 13.9445C1.69087 13.9445 1.26815 13.5472 1.26815 12.9131C1.26815 12.279 1.69087 11.8817 2.27421 11.8817C2.85756 11.8817 3.28028 12.279 3.28028 12.9131C3.28028 13.5472 2.85756 13.9445 2.27421 13.9445Z" fill="white"/>
<path d="M5.47876 15.0266H6.74691V8.85498H5.47876V15.0266Z" fill="white"/>
<path d="M8.30911 10.4275C8.72337 10.4275 9.07 10.0809 9.07 9.66665C9.07 9.25239 8.72337 8.90576 8.30911 8.90576C7.89485 8.90576 7.54822 9.25239 7.54822 9.66665C7.54822 10.0809 7.89485 10.4275 8.30911 10.4275ZM7.67503 15.0267H8.94318V10.7995H7.67503V15.0267Z" fill="white"/>
<path d="M12.3481 10.6812C11.7901 10.6812 11.3674 10.8841 11.1391 11.1969V10.7995H9.87097V15.0267H11.1391V12.7186C11.1391 12.1184 11.4604 11.8479 11.9254 11.8479C12.3312 11.8479 12.6609 12.093 12.6609 12.6172V15.0267H13.9291V12.4312C13.9291 11.2899 13.202 10.6812 12.3481 10.6812Z" fill="white"/>
<path d="M15.9329 13.4204H18.9342C18.968 13.2597 18.9849 13.0906 18.9849 12.9131C18.9849 11.6365 18.0718 10.6812 16.8375 10.6812C15.5017 10.6812 14.5886 11.6534 14.5886 12.9131C14.5886 14.1728 15.4848 15.145 16.9305 15.145C17.7336 15.145 18.3593 14.8491 18.7735 14.2742L17.759 13.6909C17.5899 13.8769 17.294 14.0122 16.9474 14.0122C16.4824 14.0122 16.0935 13.86 15.9329 13.4204ZM15.9075 12.4735C16.0259 12.0423 16.3471 11.8056 16.829 11.8056C17.2095 11.8056 17.5899 11.9831 17.7252 12.4735H15.9075Z" fill="white"/>
<path d="M22.7318 10.7995V11.1969C22.4528 10.8756 22.0386 10.6812 21.4721 10.6812C20.3646 10.6812 19.4515 11.6534 19.4515 12.9131C19.4515 14.1728 20.3646 15.145 21.4721 15.145C22.0386 15.145 22.4528 14.9506 22.7318 14.6293V15.0267H24V10.7995H22.7318ZM21.7258 13.9445C21.1424 13.9445 20.7197 13.5472 20.7197 12.9131C20.7197 12.279 21.1424 11.8817 21.7258 11.8817C22.3091 11.8817 22.7318 12.279 22.7318 12.9131C22.7318 13.5472 22.3091 13.9445 21.7258 13.9445Z" fill="white"/>
</svg>
