<svg width="24" height="24" viewBox="0 0 24 24" fill="none" xmlns="http://www.w3.org/2000/svg">
<path d="M0 5.16493H5.611V6.81523H0V5.16493ZM0 2.1001H5.611V3.75039H0V2.1001ZM10.0668 8.20619H0V9.85648H9.68959C10.7505 9.85648 13.2259 9.88006 14.1454 11.3653V10.4459C13.6974 8.98418 12.3772 8.20619 10.0668 8.20619ZM10.0904 11.271H0V12.9213H9.68959C12.0472 12.9213 13.5324 13.0156 14.1454 13.3457V12.6148C13.6739 11.4596 11.6935 11.271 10.0904 11.271ZM10.0668 19.051H0V17.4007H9.68959C10.7505 17.4007 13.2259 17.3771 14.1454 15.8918V16.8113C13.6974 18.273 12.3772 19.051 10.0668 19.051ZM10.0904 15.9861H0V14.3359H9.68959C12.0472 14.3359 13.5324 14.2416 14.1454 13.9115V14.6423C13.6739 15.7975 11.6935 15.9861 10.0904 15.9861ZM16.5972 21.9036H24V20.8899H16.8094C16.1729 20.8899 14.664 20.8663 14.1218 19.994V20.5598C14.3811 21.4321 15.1827 21.9036 16.5972 21.9036ZM16.5737 20.0412H23.9764V19.0274H16.8094C15.3713 19.0274 14.4754 18.9803 14.1218 18.7681V19.216C14.4047 19.9233 15.6071 20.0412 16.5737 20.0412Z" fill="#17A1E6"/>
</svg>
