<svg width="24" height="24" viewBox="0 0 24 24" fill="none" xmlns="http://www.w3.org/2000/svg">
<path d="M22.5821 0L20.6542 21.5975L11.9882 24L3.34603 21.6009L1.42017 0H22.5821Z" fill="#264DE4"/>
<path d="M19.0037 20.2226L20.6512 1.7666H12.0011V22.164L19.0037 20.2226Z" fill="#2965F1"/>
<path d="M5.83508 9.77832L6.07253 12.4276H12.0011V9.77832H5.83508Z" fill="#EBEBEB"/>
<path d="M12.0011 4.41602H11.992H5.35803L5.59886 7.0653H12.0011V4.41602Z" fill="#EBEBEB"/>
<path d="M12.0012 19.4148V16.6585L11.9896 16.6616L9.03909 15.8649L8.85048 13.752H7.41677H6.19104L6.5622 17.9117L11.989 19.4182L12.0012 19.4148Z" fill="#EBEBEB"/>
<path d="M15.2543 12.4274L14.9468 15.8633L11.9921 16.6608V19.417L17.4232 17.9118L17.463 17.4642L18.0856 10.4896L18.1502 9.77818L18.6285 4.41602H11.9921V7.0653H15.7251L15.4841 9.77818H11.9921V12.4274H15.2543Z" fill="white"/>
</svg>
