<svg width="24" height="24" viewBox="0 0 24 24" fill="none" xmlns="http://www.w3.org/2000/svg">
<g clip-path="url(#clip0_666_1087)">
<path d="M23.5473 10.9309L13.0688 0.452711C12.4654 -0.150904 11.4868 -0.150904 10.8829 0.452711L8.70723 2.62896L11.4672 5.38897C12.1087 5.17219 12.8442 5.31767 13.3553 5.82908C13.8696 6.34363 14.0137 7.08542 13.7915 7.72925L16.4519 10.3895C17.0957 10.1675 17.838 10.3111 18.352 10.8259C19.0703 11.5442 19.0703 12.7081 18.352 13.4269C17.6333 14.1454 16.4694 14.1454 15.7504 13.4269C15.2102 12.8862 15.0765 12.0922 15.3505 11.4267L12.8692 8.94562V15.4746C13.0442 15.5614 13.2096 15.6768 13.3553 15.8225C14.0736 16.5408 14.0736 17.7047 13.3553 18.4238C12.637 19.1418 11.4724 19.1418 10.7547 18.4238C10.0364 17.7044 10.0364 16.5406 10.7547 15.8225C10.9323 15.6452 11.1378 15.5109 11.3572 15.4211V8.83122C11.1378 8.74137 10.9328 8.60843 10.7547 8.42977C10.2106 7.88597 10.0798 7.08724 10.3587 6.41912L7.63793 3.69776L0.452701 10.8824C-0.1509 11.4865 -0.1509 12.4652 0.452701 13.0688L10.9317 23.5473C11.5351 24.1509 12.5135 24.1509 13.1176 23.5473L23.5473 13.1174C24.1509 12.5138 24.1509 11.5346 23.5473 10.9309Z" fill="#F05133"/>
</g>
<defs>
<clipPath id="clip0_666_1087">
<rect width="24" height="24" fill="white"/>
</clipPath>
</defs>
</svg>
