<svg width="24" height="24" viewBox="0 0 24 24" fill="none" xmlns="http://www.w3.org/2000/svg">
<path d="M12.2188 10.1347C12.2174 10.1765 12.1999 10.2161 12.1698 10.2452C12.1398 10.2742 12.0996 10.2904 12.0578 10.2904H10.3993C10.2906 10.2904 10.1998 10.2023 10.1998 10.0951C10.1998 9.61126 10.0324 9.37566 9.68988 9.37566C9.34736 9.37566 9.12645 9.58599 9.11999 9.95348C9.11265 10.3633 9.34442 10.7357 10.0042 11.3755C10.8728 12.1904 11.2209 12.9122 11.2042 13.8663C11.1769 15.4091 10.1279 16.4064 8.5316 16.4064C7.71643 16.4064 7.09367 16.1884 6.67948 15.7584C6.25912 15.3216 6.06641 14.6806 6.10666 13.8534C6.10803 13.8115 6.12564 13.7719 6.15574 13.7428C6.18585 13.7138 6.22609 13.6976 6.26793 13.6977H7.98346C8.00735 13.6981 8.03086 13.7037 8.0523 13.7143C8.07374 13.7249 8.09256 13.7401 8.10742 13.7588C8.12038 13.7743 8.12987 13.7923 8.13524 13.8118C8.14062 13.8313 8.14175 13.8516 8.13856 13.8716C8.11946 14.17 8.17146 14.393 8.28896 14.5164C8.36416 14.5963 8.46903 14.6368 8.59975 14.6368C8.91671 14.6368 9.10237 14.413 9.10942 14.0229C9.11529 13.6856 9.00866 13.3901 8.42761 12.7923C7.67707 12.0591 7.00408 11.3015 7.02493 10.1103C7.03727 9.41943 7.31164 8.78757 7.7978 8.33107C8.31187 7.84873 9.01483 7.59375 9.83088 7.59375C10.6484 7.59963 11.2679 7.83287 11.6724 8.28701C12.0555 8.71736 12.2397 9.33895 12.2194 10.1347H12.2188Z" fill="#FFFCE1"/>
<path d="M17.3595 16.1159L17.3704 7.91048C17.3707 7.88993 17.3669 7.86953 17.3592 7.85047C17.3515 7.83141 17.3401 7.81407 17.3256 7.79949C17.3111 7.7849 17.2939 7.77336 17.2749 7.76553C17.2559 7.7577 17.2355 7.75375 17.215 7.75391H14.6481C14.5618 7.75391 14.5239 7.82823 14.4992 7.87729L10.7826 16.0657V16.0672L10.7812 16.0692C10.74 16.17 10.8182 16.2778 10.9272 16.2778H12.7214C12.8183 16.2778 12.8827 16.2484 12.9141 16.1873L13.2704 15.331C13.3142 15.2167 13.3224 15.2062 13.447 15.2062H15.1613C15.2806 15.2062 15.2829 15.2085 15.2812 15.3251L15.2427 16.1212C15.2424 16.1417 15.2462 16.1621 15.2538 16.1812C15.2615 16.2002 15.2729 16.2175 15.2873 16.2321C15.3018 16.2467 15.319 16.2582 15.338 16.2661C15.3569 16.2739 15.3773 16.2779 15.3978 16.2778H17.2106C17.233 16.2781 17.2552 16.2734 17.2757 16.2642C17.2961 16.2549 17.3143 16.2413 17.3289 16.2243C17.3416 16.2095 17.3508 16.1922 17.3561 16.1735C17.3614 16.1548 17.3625 16.1351 17.3595 16.1159ZM14.184 13.3764C14.1705 13.3764 14.157 13.376 14.1435 13.3749C14.1372 13.3744 14.1311 13.3725 14.1256 13.3694C14.1201 13.3662 14.1154 13.3619 14.1118 13.3568C14.1081 13.3516 14.1057 13.3457 14.1045 13.3395C14.1034 13.3333 14.1037 13.327 14.1053 13.3209C14.1088 13.3091 14.1138 13.2929 14.1211 13.2733L15.4066 10.0925C15.4182 10.0611 15.4315 10.0304 15.4466 10.0005C15.4674 9.95766 15.4927 9.95472 15.5006 9.98644C15.5074 10.0129 15.3532 13.2524 15.3532 13.2524C15.3411 13.3737 15.3355 13.3787 15.216 13.3887L14.1852 13.377H14.1828L14.184 13.3764Z" fill="#FFFCE1"/>
<path d="M21.0161 7.7543H19.6534C19.5814 7.7543 19.5007 7.79249 19.4819 7.87826L17.5854 16.1122C17.5812 16.1308 17.5814 16.15 17.5859 16.1685C17.5904 16.187 17.599 16.2042 17.6112 16.2188C17.627 16.2374 17.6467 16.2524 17.6689 16.2626C17.691 16.2729 17.7152 16.2782 17.7396 16.2782H19.4428C19.5344 16.2782 19.597 16.2332 19.614 16.1554L19.8208 15.2221C19.8355 15.1493 19.8103 15.0929 19.7451 15.0588C19.7145 15.043 19.6839 15.0272 19.6534 15.0112L19.3582 14.8576L19.0644 14.7042L18.9507 14.6452C18.9415 14.6406 18.9337 14.6334 18.9284 14.6246C18.923 14.6158 18.9203 14.6056 18.9205 14.5953C18.9209 14.58 18.9272 14.5654 18.9382 14.5548C18.9492 14.5441 18.9639 14.5382 18.9792 14.5383L19.9125 14.5424C20.1916 14.5438 20.4709 14.5242 20.7456 14.4736C22.6785 14.1167 23.9622 12.5686 23.9992 10.4621C24.0309 8.66435 23.0275 7.75342 21.0176 7.75342L21.0161 7.7543ZM20.5523 12.6541H20.5159C20.4339 12.6541 20.4195 12.6453 20.4172 12.6424C20.4157 12.6403 20.9553 10.2709 20.9556 10.2677C20.9694 10.1992 20.9688 10.1599 20.9265 10.1366C20.8725 10.1067 20.0846 9.69132 20.0846 9.69132C20.0755 9.6865 20.0678 9.67921 20.0626 9.67029C20.0574 9.66136 20.0547 9.65114 20.055 9.64079C20.0554 9.6257 20.0616 9.61135 20.0724 9.60082C20.0832 9.59028 20.0977 9.58438 20.1128 9.58439H21.3587C21.7464 9.59614 21.9626 9.94306 21.9523 10.5356C21.9344 11.5611 21.4468 12.618 20.5523 12.6541Z" fill="#FFFCE1"/>
<path d="M6.9944 11.7099V11.7137L6.67861 13.0844C6.66157 13.1619 6.58402 13.2186 6.49472 13.2186H6.11313C6.09938 13.2187 6.08601 13.2232 6.075 13.2314C6.064 13.2397 6.05594 13.2513 6.05203 13.2644C5.70011 14.4583 5.22365 15.2787 4.59442 15.7713C4.0592 16.1908 3.39943 16.3865 2.51787 16.3865C1.72591 16.3865 1.19186 16.1318 0.738896 15.6289C0.140224 14.9644 -0.107117 13.8763 0.0426973 12.5656C0.312951 10.1048 1.58931 7.62171 4.04686 7.62171C4.79447 7.61525 5.38139 7.84585 5.78971 8.30616C6.22153 8.79321 6.44067 9.52642 6.44185 10.4864C6.44077 10.5285 6.42332 10.5685 6.3932 10.5979C6.36308 10.6273 6.32267 10.6438 6.28057 10.6439H4.47986C4.44831 10.6429 4.41832 10.6299 4.39608 10.6075C4.37384 10.5851 4.36104 10.555 4.3603 10.5234C4.34561 9.85954 4.1488 9.53641 3.75752 9.53641C3.06719 9.53641 2.66005 10.4735 2.44414 10.9928C2.14245 11.7184 1.98882 12.5066 2.01908 13.2915C2.03347 13.6569 2.09222 14.1707 2.43915 14.3836C2.74671 14.5722 3.18558 14.4471 3.45142 14.2382C3.71698 14.0291 3.93083 13.6675 4.02072 13.3376C4.03335 13.2918 4.03423 13.2562 4.02219 13.2404C4.00956 13.2239 3.9746 13.2201 3.94787 13.2201H3.4855C3.46103 13.2202 3.43683 13.2149 3.41461 13.2046C3.39238 13.1944 3.37267 13.1794 3.35684 13.1607C3.34469 13.1462 3.33606 13.129 3.33163 13.1106C3.3272 13.0921 3.32708 13.0729 3.33128 13.0544L3.64736 11.6814C3.66293 11.6112 3.72667 11.558 3.8051 11.5486V11.5451H6.83959C6.84664 11.5451 6.85398 11.5451 6.86074 11.5466C6.93947 11.5568 6.99498 11.63 6.99352 11.7099H6.9944Z" fill="#FFFCE1"/>
</svg>
