<svg width="24" height="24" viewBox="0 0 24 24" fill="none" xmlns="http://www.w3.org/2000/svg">
<path d="M17.1957 9.55094C15.9313 3.97316 13.2961 2.48828 12.6238 1.43863C12.3466 0.976231 12.1011 0.495588 11.8888 0C11.8533 0.495509 11.7881 0.80768 11.3669 1.18344C10.5212 1.93744 6.92959 4.86425 6.62733 11.2018C6.34572 17.1108 10.9713 20.7544 11.5824 21.131C12.0523 21.3622 12.6246 21.136 12.9038 20.9237C15.1336 19.3934 18.1801 15.3137 17.1982 9.55094" fill="#10AA50"/>
<path d="M12.0803 17.9844C11.9639 19.447 11.8805 20.2968 11.5848 21.1325C11.5848 21.1325 11.7789 22.5249 11.9152 23.9999H12.3975C12.5125 22.9612 12.6882 21.9302 12.9235 20.912C12.2992 20.6048 12.1043 19.2677 12.0803 17.9844Z" fill="#B8C4C2"/>
<path d="M12.9228 20.9129C12.2918 20.6214 12.1093 19.2563 12.0812 17.9845C12.2373 15.8865 12.2828 13.7818 12.2175 11.6791C12.1845 10.5758 12.2332 1.46006 11.9458 0.125488C12.1424 0.577494 12.3689 1.01589 12.6238 1.43776C13.2961 2.48824 15.9322 3.97312 17.1957 9.5509C18.1801 15.3038 15.1501 19.3727 12.9228 20.9129Z" fill="#12924F"/>
</svg>
