<svg width="24" height="24" viewBox="0 0 24 24" fill="none" xmlns="http://www.w3.org/2000/svg">
<g clip-path="url(#clip0_659_844)">
<path d="M20.0827 9.22816C20.0452 8.40395 20.1576 7.67341 19.783 7.05526C18.8839 5.51925 16.636 4.62012 12.1404 4.62012C7.64474 4.62012 5.28452 5.51925 4.38539 7.07399C4.02949 7.71087 4.06695 8.42269 4.01076 9.24689C3.97329 9.9025 3.67358 10.5956 3.80471 11.3449C3.95456 12.3189 4.01076 13.293 4.16061 14.1921C4.273 14.9226 5.28452 15.5408 5.37818 16.2339C5.64043 18.1445 7.62601 19.0249 12.1217 19.0249V19.1748H12.0093H12.028H12.1404V19.0249C16.636 19.0249 18.5467 18.1445 18.7902 16.2339C18.8839 15.5221 19.8204 14.9226 19.9328 14.1921C20.0827 13.293 20.1389 12.3189 20.2887 11.3449C20.4199 10.5956 20.1202 9.88377 20.0827 9.22816Z" fill="#EFCCA3"/>
<path d="M12.0655 9.90234C12.871 9.92108 13.433 10.4268 13.9575 10.8951C14.5756 11.4384 15.6246 11.813 16.0554 12.2813C16.4863 12.7496 17.0482 13.2179 17.2543 13.9484C17.4603 14.679 17.5165 15.6156 17.5165 15.8591C17.5165 16.1026 17.6476 16.0464 18.0223 15.8591C18.9027 15.4282 19.8767 14.2669 19.8767 14.2669C19.7643 14.9974 18.809 15.653 18.7154 16.3461C18.4906 18.2568 16.6361 19.1746 12.0468 19.1746H12.0281H12.1405" fill="#CCAC8D"/>
<path d="M15.0252 8.44158C15.1938 9.02227 15.7932 10.9891 14.6318 10.3335C14.6318 10.3335 15.1189 10.6145 15.4186 11.6822C15.737 12.7499 16.505 12.881 16.505 12.881C16.505 12.881 17.7601 13.1245 18.6966 12.3191C19.4834 11.6447 19.6145 10.4459 19.2773 9.52803C18.9402 8.6289 18.3407 8.34792 17.4603 8.1606C16.5799 7.95455 14.8192 7.78596 15.0252 8.44158Z" fill="#CCAC8D"/>
<path d="M17.2544 12.2255C18.1648 12.2255 18.9028 11.4875 18.9028 10.5771C18.9028 9.66673 18.1648 8.92871 17.2544 8.92871C16.344 8.92871 15.606 9.66673 15.606 10.5771C15.606 11.4875 16.344 12.2255 17.2544 12.2255Z" fill="black"/>
<path d="M16.8234 10.2777C17.0614 10.2777 17.2542 10.0848 17.2542 9.84685C17.2542 9.60891 17.0614 9.41602 16.8234 9.41602C16.5855 9.41602 16.3926 9.60891 16.3926 9.84685C16.3926 10.0848 16.5855 10.2777 16.8234 10.2777Z" fill="white"/>
<path d="M14.7441 10.502C14.7441 10.502 16.2239 11.5135 17.0294 12.5063C17.8349 13.4991 17.8161 13.6864 17.8161 13.6864L17.2354 13.9486C17.2354 13.9486 16.4112 12.3939 15.3997 11.8132C14.3695 11.2325 14.2571 10.7455 14.2571 10.7455L14.7441 10.502Z" fill="#EFCCA3"/>
<path d="M12.1218 9.90234C11.3163 9.92108 10.7169 10.4268 10.1736 10.8951C9.55549 11.4384 8.46904 11.813 8.03821 12.2813C7.60737 12.7496 7.02669 13.2179 6.82064 13.9484C6.61459 14.679 6.53966 15.6156 6.53966 15.8591C6.53966 16.1026 6.57712 16.1213 6.0339 15.8591C5.1535 15.447 4.17944 14.2669 4.17944 14.2669C4.29183 14.9974 5.24716 15.653 5.34082 16.3461C5.60307 18.2568 7.45752 19.1746 12.0468 19.1746H12.0656H12.1405" fill="#CCAC8D"/>
<path d="M16.4675 13.068C15.5683 11.9629 14.126 10.9326 12.1217 10.9326H12.1029C10.0986 10.9326 8.65626 11.9629 7.75713 13.068C6.82054 14.2107 6.89547 14.6603 6.89547 15.7467C6.89547 19.6804 8.28163 18.5565 9.19949 19.0435C10.1361 19.5118 11.1101 19.362 12.1029 19.362H12.1217C13.1332 19.362 14.0885 19.4931 15.0251 19.0248C15.943 18.5565 17.3291 19.7179 17.3291 15.7842C17.3478 14.6977 17.404 14.2107 16.4675 13.068Z" fill="#56332B"/>
<path d="M12.0281 11.9072C12.0281 11.9072 11.897 13.7242 11.6348 14.0801L12.1218 13.9677L12.0281 11.9072Z" fill="#442823"/>
<path d="M12.1591 11.9072C12.1591 11.9072 12.2902 13.7242 12.5525 14.0801L12.0654 13.9677L12.1591 11.9072Z" fill="#442823"/>
<path d="M10.5856 11.4766C10.3983 11.0458 11.0726 10.3527 12.1404 10.334C13.2081 10.334 13.8824 11.0271 13.6951 11.4766C13.5078 11.9262 12.8334 12.0573 12.1404 12.076C11.466 12.0573 10.7729 11.9262 10.5856 11.4766Z" fill="#56332B"/>
<path d="M12.1404 11.907C12.1404 11.832 12.7773 11.8133 13.1145 11.5885C13.1145 11.5885 12.4214 11.8133 12.2716 11.7196C12.1217 11.6447 12.0842 11.4199 12.0842 11.4199C12.0842 11.4199 12.0281 11.6447 11.9157 11.7196C11.7845 11.7946 10.9978 11.5885 10.9978 11.5885C10.9978 11.5885 12.0468 11.8508 12.0468 11.907C12.0468 11.9631 12.0281 12.1505 12.0281 12.2816C12.0281 12.7499 12.0281 13.9113 12.103 14.0049C12.2154 14.1735 12.1779 12.7499 12.1779 12.2816C12.1592 12.1317 12.1592 11.9819 12.1404 11.907Z" fill="black"/>
<path d="M12.1778 14.4173C12.4962 14.4173 13.0582 14.642 13.5639 14.9979C13.0769 14.4547 12.4962 14.0801 12.1778 14.0801C11.8406 14.0801 11.1288 14.4922 10.623 15.0916C11.1475 14.6795 11.8219 14.4173 12.1778 14.4173Z" fill="#7F4A41"/>
<path d="M12.0468 17.7328C11.335 17.7328 10.6419 17.508 10.005 17.3394C9.87387 17.302 9.74275 17.3956 9.61163 17.3582C8.43152 16.9835 7.4762 16.3467 6.89551 15.5412C6.89551 15.5974 6.89551 15.6723 6.89551 15.7285C6.89551 19.6622 8.28167 18.557 9.19953 19.0253C10.1361 19.4936 11.1102 19.3438 12.103 19.3438H12.1217C13.1332 19.3438 14.0885 19.4749 15.0251 19.0066C15.943 18.5383 17.3292 19.6809 17.3292 15.7472C17.3292 15.5974 17.3292 15.4475 17.3479 15.3164C16.8047 16.1968 15.8119 16.8899 14.5756 17.302C14.4632 17.3394 14.2009 17.2458 14.0885 17.2645C13.4142 17.4893 12.8148 17.7328 12.0468 17.7328Z" fill="#442823"/>
<path d="M10.2672 15.6162C10.2672 15.6162 9.79891 17.0211 10.1174 17.6393L9.68652 17.4519C9.68652 17.4519 10.005 16.0283 10.2672 15.6162Z" fill="#442823"/>
<path d="M13.9761 15.6162C13.9761 15.6162 14.4444 17.0211 14.1259 17.6393L14.5568 17.4519C14.5568 17.4519 14.2196 16.0283 13.9761 15.6162Z" fill="#442823"/>
<path d="M9.06838 8.44158C8.8998 9.02227 8.30038 10.9891 9.46175 10.3335C9.46175 10.3335 8.97472 10.6145 8.67501 11.6822C8.37531 12.7499 7.58857 12.881 7.58857 12.881C7.58857 12.881 6.33353 13.1245 5.39694 12.3191C4.6102 11.6447 4.47908 10.4459 4.81625 9.52803C5.15342 8.61017 5.75284 8.34792 6.63324 8.1606C7.51364 7.95455 9.2557 7.78596 9.06838 8.44158Z" fill="#CCAC8D"/>
<path d="M12.1217 14.0795C12.6274 14.0795 14.2009 15.166 14.2196 16.496C14.2196 16.4772 14.2196 16.4585 14.2196 16.421C14.2196 15.0349 12.9459 13.9297 12.1217 13.9297C11.2974 13.9297 10.0237 15.0536 10.0237 16.421C10.0237 16.4398 10.0237 16.4585 10.0237 16.496C10.0424 15.166 11.6159 14.0795 12.1217 14.0795Z" fill="black"/>
<path d="M12.5305 11.4862C12.6107 11.4655 12.6442 11.327 12.6055 11.1767C12.5667 11.0265 12.4704 10.9214 12.3902 10.9421C12.3101 10.9627 12.2765 11.1013 12.3153 11.2516C12.354 11.4018 12.4504 11.5069 12.5305 11.4862Z" fill="#331712"/>
<path d="M11.5677 11.4835C11.6467 11.508 11.7481 11.4077 11.7941 11.2595C11.84 11.1113 11.8132 10.9713 11.7342 10.9467C11.6551 10.9222 11.5538 11.0225 11.5078 11.1707C11.4618 11.3189 11.4886 11.4589 11.5677 11.4835Z" fill="#331712"/>
<path d="M6.93307 12.2255C7.84346 12.2255 8.58148 11.4875 8.58148 10.5771C8.58148 9.66673 7.84346 8.92871 6.93307 8.92871C6.02268 8.92871 5.28467 9.66673 5.28467 10.5771C5.28467 11.4875 6.02268 12.2255 6.93307 12.2255Z" fill="black"/>
<path d="M7.36394 10.2777C7.60188 10.2777 7.79477 10.0848 7.79477 9.84685C7.79477 9.60891 7.60188 9.41602 7.36394 9.41602C7.126 9.41602 6.93311 9.60891 6.93311 9.84685C6.93311 10.0848 7.126 10.2777 7.36394 10.2777Z" fill="white"/>
<path d="M12.6087 10.5959C12.6087 10.5772 12.1778 10.7832 12.0654 10.802C11.953 10.7832 11.5222 10.5772 11.5222 10.5959C11.5222 10.5959 11.8781 10.5959 12.0654 10.5959C12.2528 10.5959 12.6087 10.5959 12.6087 10.5959Z" fill="#7F4A41"/>
<path d="M9.33061 10.502C9.33061 10.502 7.85079 11.5135 7.04532 12.5063C6.23985 13.4991 6.25858 13.6864 6.25858 13.6864L6.83927 13.9486C6.83927 13.9486 7.66347 12.3939 8.67499 11.8132C9.68651 11.2325 9.81764 10.7455 9.81764 10.7455L9.33061 10.502Z" fill="#EFCCA3"/>
<path d="M6.09012 7.50488C6.09012 7.50488 5.58436 8.89104 4.46045 9.47173C4.46045 9.47173 6.22124 9.26568 6.09012 7.50488Z" fill="#CCAC8D"/>
<path d="M17.9098 7.50488C17.9098 7.50488 18.4156 8.89104 19.5395 9.47173C19.5395 9.47173 17.7787 9.26568 17.9098 7.50488Z" fill="#CCAC8D"/>
<path d="M14.7067 10.0904C14.7067 10.0904 13.6016 8.92907 12.1218 8.8916C12.103 8.8916 12.1592 8.8916 12.1405 8.8916C12.1218 8.8916 12.1592 8.8916 12.1592 8.8916C10.6607 8.92907 9.57422 10.0904 9.57422 10.0904C10.8667 9.19131 11.9719 9.21004 12.1592 9.21004C12.1405 9.21004 13.4143 9.19131 14.7067 10.0904Z" fill="#CCAC8D"/>
<path d="M13.4142 7.65508C13.4142 7.65508 12.8522 6.86834 12.1029 6.84961H12.1217H12.1404C11.5784 6.86834 10.8479 7.65508 10.8479 7.65508C11.4848 7.03693 12.1404 7.05566 12.1404 7.05566C12.1404 7.05566 12.7586 7.03693 13.4142 7.65508Z" fill="#CCAC8D"/>
<path d="M6.9329 13.406C6.9329 13.406 6.0525 13.8368 5.41562 13.5745H5.39689C4.83493 13.2561 4.55396 12.3008 4.55396 12.3008C4.55396 12.3008 5.11591 13.9866 6.9329 13.406Z" fill="#CCAC8D"/>
<path d="M17.198 13.406C17.198 13.406 18.0784 13.8368 18.7153 13.5745C19.4646 13.2561 19.5769 12.3008 19.5769 12.3008C19.5769 12.3008 19.015 13.9866 17.198 13.406Z" fill="#CCAC8D"/>
<path d="M7.94458 7.4117C8.43161 7.31804 9.23708 7.2993 9.87396 7.50535C10.6794 7.78633 10.0238 8.81659 10.1924 8.87278C10.361 8.92898 10.5858 8.16097 12.0843 8.2359C13.6016 8.31082 13.7702 8.98517 13.9762 8.87278C14.1823 8.76039 13.7702 6.99959 16.0367 7.4117C16.0367 7.4117 13.6578 6.77481 13.7702 8.49814C13.7702 8.49814 12.4028 7.44916 10.4921 8.38575C10.5108 8.38575 10.9979 6.77481 7.94458 7.4117Z" fill="#CCAC8D"/>
<path d="M16.2427 7.41113C16.2801 7.41113 16.2989 7.42986 16.3176 7.42986C16.3363 7.42986 16.2989 7.41113 16.2427 7.41113Z" fill="#CCAC8D"/>
<path d="M7.289 5.10742C7.289 5.10742 5.26596 7.65496 4.96625 8.62901C4.66654 9.6218 4.44176 13.6866 4.17951 14.2673L3.24292 10.2587L4.96625 6.08148L7.289 5.10742Z" fill="#CCAC8D"/>
<path d="M16.8047 5.10742C16.8047 5.10742 18.8277 7.65496 19.1274 8.62901C19.4271 9.6218 19.6519 13.6866 19.9142 14.2673L20.8508 10.2587L19.1274 6.08148L16.8047 5.10742Z" fill="#CCAC8D"/>
<path d="M16.7111 5.10759C16.7111 5.10759 18.884 6.92458 19.5209 9.02255C20.1578 11.1205 19.8955 13.668 20.3826 13.9865C21.0756 14.4361 21.8624 11.7574 22.1246 11.4764C22.5367 11.0269 23.9041 9.88421 23.9978 9.67816C24.0915 9.47211 21.2255 6.34389 19.9705 5.72574C18.4532 5.01393 16.58 4.95773 16.7111 5.10759Z" fill="#56332B"/>
<path d="M18.5654 6.23145C18.5654 6.23145 21.1317 9.50952 21.0942 13.5931L22.1245 11.4951C22.1058 11.4951 21.2066 8.81644 18.5654 6.23145Z" fill="#442823"/>
<path d="M7.28894 5.10759C7.28894 5.10759 5.11604 6.92458 4.47916 9.02255C3.84227 11.1205 4.10452 13.668 3.61749 13.9865C2.92441 14.4361 2.13767 11.7574 1.87543 11.4764C1.46333 11.0269 0.0959007 9.88421 0.00224137 9.67816C-0.0914179 9.47211 2.77456 6.34389 4.02959 5.72574C5.54687 5.01393 7.42006 4.95773 7.28894 5.10759Z" fill="#56332B"/>
<path d="M5.43437 6.23145C5.43437 6.23145 2.8681 9.50952 2.90556 13.5931L1.89404 11.4951C1.89404 11.4951 2.79317 8.81644 5.43437 6.23145Z" fill="#442823"/>
<path d="M4.04834 13.6676C4.04834 13.6676 4.23566 14.6791 4.53537 14.9975C4.83508 15.316 4.62903 14.754 4.62903 14.754C4.62903 14.754 4.31059 14.5854 4.36678 13.2929C4.42298 12.0004 4.04834 13.6676 4.04834 13.6676Z" fill="#CCAC8D"/>
<path d="M20.0265 13.6676C20.0265 13.6676 19.8391 14.6791 19.5394 14.9975C19.2397 15.316 19.4458 14.754 19.4458 14.754C19.4458 14.754 19.7642 14.5854 19.708 13.2929C19.6518 12.0004 20.0265 13.6676 20.0265 13.6676Z" fill="#CCAC8D"/>
<path d="M10.1735 13.0497C10.2563 13.0497 10.3234 12.9826 10.3234 12.8999C10.3234 12.8171 10.2563 12.75 10.1735 12.75C10.0908 12.75 10.0237 12.8171 10.0237 12.8999C10.0237 12.9826 10.0908 13.0497 10.1735 13.0497Z" fill="#442823"/>
<path d="M9.31196 13.9491C9.39473 13.9491 9.46182 13.882 9.46182 13.7993C9.46182 13.7165 9.39473 13.6494 9.31196 13.6494C9.2292 13.6494 9.16211 13.7165 9.16211 13.7993C9.16211 13.882 9.2292 13.9491 9.31196 13.9491Z" fill="#442823"/>
<path d="M9.03096 13.0497C9.11372 13.0497 9.18081 12.9826 9.18081 12.8999C9.18081 12.8171 9.11372 12.75 9.03096 12.75C8.9482 12.75 8.8811 12.8171 8.8811 12.8999C8.8811 12.9826 8.9482 13.0497 9.03096 13.0497Z" fill="#442823"/>
<path d="M13.8264 13.0497C13.9091 13.0497 13.9762 12.9826 13.9762 12.8999C13.9762 12.8171 13.9091 12.75 13.8264 12.75C13.7436 12.75 13.6765 12.8171 13.6765 12.8999C13.6765 12.9826 13.7436 13.0497 13.8264 13.0497Z" fill="#442823"/>
<path d="M14.6879 13.9491C14.7707 13.9491 14.8378 13.882 14.8378 13.7993C14.8378 13.7165 14.7707 13.6494 14.6879 13.6494C14.6052 13.6494 14.5381 13.7165 14.5381 13.7993C14.5381 13.882 14.6052 13.9491 14.6879 13.9491Z" fill="#442823"/>
<path d="M14.9689 13.0497C15.0517 13.0497 15.1188 12.9826 15.1188 12.8999C15.1188 12.8171 15.0517 12.75 14.9689 12.75C14.8862 12.75 14.8191 12.8171 14.8191 12.8999C14.8191 12.9826 14.8862 13.0497 14.9689 13.0497Z" fill="#442823"/>
</g>
<defs>
<clipPath id="clip0_659_844">
<rect width="24" height="24" fill="white"/>
</clipPath>
</defs>
</svg>
