<svg width="24" height="24" viewBox="0 0 24 24" fill="none" xmlns="http://www.w3.org/2000/svg">
<g clip-path="url(#clip0_659_909)">
<path d="M12.0009 13.9979C13.1046 13.9979 13.9994 13.1032 13.9994 11.9995C13.9994 10.8957 13.1046 10.001 12.0009 10.001C10.8972 10.001 10.0024 10.8957 10.0024 11.9995C10.0024 13.1032 10.8972 13.9979 12.0009 13.9979Z" fill="#61DAFB"/>
<path d="M22.2371 12C22.2371 11.6207 22.0376 11.2035 21.5554 10.7681C21.0731 10.3327 20.3473 9.91806 19.4096 9.56001C17.5375 8.84523 14.9183 8.39283 12.001 8.39283C9.0837 8.39283 6.46453 8.84523 4.5924 9.56001C3.65465 9.91806 2.92888 10.3327 2.44655 10.7681C1.96434 11.2035 1.7649 11.6207 1.7649 12C1.76497 12.3793 1.96428 12.7966 2.44655 13.2319C2.92888 13.6673 3.65465 14.082 4.5924 14.44C6.46452 15.1548 9.08377 15.6072 12.001 15.6072C14.9182 15.6072 17.5375 15.1548 19.4096 14.44C20.3473 14.082 21.0731 13.6673 21.5554 13.2319C22.0377 12.7966 22.237 12.3793 22.2371 12ZM23.2119 12C23.2119 12.7512 22.8114 13.4113 22.2085 13.9555C21.6056 14.4998 20.7599 14.9673 19.7571 15.3502C17.7481 16.1172 15.0059 16.5821 12.001 16.5821C8.9961 16.5821 6.25388 16.1172 4.24491 15.3502C3.24208 14.9673 2.39642 14.4998 1.79347 13.9555C1.19063 13.4113 0.790107 12.7512 0.790039 12C0.790039 11.2488 1.19068 10.5888 1.79347 10.0446C2.39642 9.50029 3.24208 9.03182 4.24491 8.64893C6.25387 7.88197 8.9962 7.41797 12.001 7.41797C15.0058 7.41797 17.7481 7.88197 19.7571 8.64893C20.7599 9.03182 21.6056 9.50029 22.2085 10.0446C22.8113 10.5888 23.2119 11.2488 23.2119 12Z" fill="#61DAFB"/>
<path d="M17.1189 20.8647C17.4473 20.6751 17.709 20.2937 17.8449 19.6584C17.9808 19.023 17.977 18.1872 17.8182 17.196C17.5012 15.2173 16.5834 12.7229 15.1247 10.1964C13.6661 7.66995 11.9647 5.62788 10.4096 4.36396C9.63069 3.73087 8.9087 3.30966 8.29047 3.10965C7.67232 2.90974 7.21125 2.94564 6.88278 3.13529C6.55434 3.32499 6.29264 3.70623 6.15674 4.34156C6.02083 4.97698 6.02461 5.81284 6.18341 6.80398C6.50048 8.78266 7.41829 11.2772 8.8769 13.8036C10.3355 16.33 12.0369 18.3721 13.592 19.636C14.371 20.2691 15.0929 20.6903 15.7112 20.8903C16.3293 21.0903 16.7904 21.0543 17.1189 20.8647ZM17.6063 21.709C16.9557 22.0845 16.1838 22.0677 15.4111 21.8177C14.6383 21.5677 13.8106 21.0691 12.9776 20.392C11.3088 19.0357 9.53509 16.8933 8.03264 14.291C6.5302 11.6887 5.56171 9.08143 5.22147 6.95811C5.05165 5.89819 5.0337 4.93206 5.2036 4.13774C5.37347 3.34357 5.74481 2.66669 6.39535 2.29103C7.04592 1.91542 7.81783 1.93238 8.59052 2.1823C9.36337 2.43232 10.1919 2.93046 11.0249 3.60748C12.6936 4.96381 14.4666 7.10674 15.969 9.70897C17.4714 12.3112 18.4407 14.9181 18.781 17.0414C18.9508 18.1013 18.9679 19.0679 18.7981 19.8623C18.6281 20.6564 18.2569 21.3334 17.6063 21.709Z" fill="#61DAFB"/>
<path d="M6.88276 20.8647C7.21123 21.0543 7.6723 21.0902 8.29045 20.8903C8.90869 20.6903 9.63067 20.2691 10.4096 19.636C11.9647 18.3721 13.6661 16.33 15.1247 13.8036C16.5834 11.2771 17.5012 8.78266 17.8182 6.80395C17.977 5.81281 17.9808 4.97695 17.8449 4.34154C17.709 3.70624 17.4473 3.3249 17.1189 3.13526C16.7903 2.94568 16.3293 2.90966 15.7112 3.10963C15.0929 3.30963 14.3709 3.73084 13.592 4.36393C12.0369 5.62786 10.3355 7.66998 8.87689 10.1964C7.41827 12.7228 6.50046 15.2173 6.18339 17.196C6.02459 18.1871 6.02081 19.023 6.15672 19.6584C6.29262 20.2937 6.55433 20.675 6.88276 20.8647ZM6.39533 21.7089C5.74479 21.3333 5.37345 20.6564 5.20358 19.8622C5.03368 19.0679 5.05164 18.1018 5.22145 17.0419C5.5617 14.9185 6.53018 12.3113 8.03263 9.70894C9.53507 7.10663 11.3088 4.96425 12.9775 3.60793C13.8105 2.93091 14.6383 2.4323 15.4111 2.18227C16.1838 1.9323 16.9557 1.91545 17.6063 2.291C18.2569 2.66661 18.6281 3.34358 18.798 4.13772C18.9679 4.93204 18.9508 5.89864 18.781 6.95856C18.4407 9.08184 17.4714 11.6888 15.969 14.291C14.4666 16.8932 12.6936 19.0362 11.0249 20.3925C10.1919 21.0695 9.36336 21.5676 8.59051 21.8177C7.81781 22.0676 7.0459 22.0846 6.39533 21.7089Z" fill="#61DAFB"/>
</g>
<defs>
<clipPath id="clip0_659_909">
<rect width="24" height="24" fill="white"/>
</clipPath>
</defs>
</svg>
