<svg width="24" height="24" viewBox="0 0 24 24" fill="none" xmlns="http://www.w3.org/2000/svg">
<path d="M20.6659 13.3467C19.8286 13.3511 19.1009 13.5527 18.4916 13.8508C18.268 13.408 18.0444 13.0135 18.005 12.7242C17.9611 12.3866 17.9085 12.1806 17.9611 11.7773C18.0137 11.374 18.2505 10.7997 18.2461 10.7559C18.2417 10.7121 18.1935 10.506 17.7113 10.5017C17.2291 10.4973 16.8126 10.5937 16.7644 10.7208C16.7162 10.848 16.6241 11.1373 16.5627 11.4354C16.4795 11.8738 15.5983 13.4387 15.0942 14.2585C14.932 13.9385 14.7917 13.6579 14.761 13.4343C14.7172 13.0968 14.6646 12.8908 14.7172 12.4875C14.7698 12.0842 15.0065 11.5099 15.0021 11.4661C14.9978 11.4222 14.9495 11.2162 14.4673 11.2118C13.9851 11.2074 13.5687 11.3039 13.5205 11.431C13.4722 11.5581 13.4196 11.8562 13.3188 12.1455C13.218 12.4349 12.0475 15.0475 11.7407 15.7226C11.5829 16.0689 11.447 16.3451 11.3505 16.5336C11.3505 16.5336 11.3461 16.5468 11.333 16.5687C11.2497 16.7309 11.2015 16.8186 11.2015 16.8186C11.2015 16.8186 11.2015 16.8186 11.2015 16.8229C11.1357 16.9413 11.0656 17.0509 11.0305 17.0509C11.0042 17.0509 10.956 16.7353 11.0393 16.3057C11.2146 15.3982 11.6311 13.9867 11.6267 13.9385C11.6267 13.9122 11.7056 13.6667 11.3549 13.5396C11.013 13.4124 10.8902 13.6228 10.8596 13.6228C10.8289 13.6228 10.807 13.6974 10.807 13.6974C10.807 13.6974 11.1883 12.1105 10.0793 12.1105C9.38664 12.1105 8.43099 12.8688 7.95755 13.5527C7.65946 13.7149 7.02383 14.0612 6.34435 14.4338C6.08572 14.5785 5.81831 14.7232 5.56844 14.859C5.55091 14.8415 5.53337 14.8196 5.51584 14.8021C4.17443 13.3686 1.69325 12.356 1.79846 10.4315C1.83792 9.73013 2.07902 7.88897 6.56354 5.65329C10.2546 3.83406 13.1917 4.33818 13.7002 5.45602C14.4279 7.05169 12.1264 10.0151 8.31263 10.4447C6.85725 10.6069 6.09448 10.0458 5.9016 9.83533C5.69995 9.61615 5.66926 9.603 5.59474 9.64684C5.472 9.71259 5.55091 9.90986 5.59474 10.0238C5.70872 10.3219 6.17777 10.848 6.97122 11.1066C7.67261 11.3346 9.37787 11.4617 11.4426 10.6639C13.7528 9.76958 15.5589 7.28402 15.0284 5.20177C14.498 3.08883 10.9911 2.39182 7.67261 3.57104C5.69995 4.27243 3.56071 5.37712 2.02203 6.81497C0.194032 8.52461 -0.0952919 10.0107 0.0230678 10.6332C0.448286 12.8425 3.49495 14.2804 4.71362 15.3456C4.65225 15.3807 4.59526 15.4114 4.54704 15.4377C3.93771 15.7402 1.61435 16.9545 1.0357 18.2389C0.378147 19.6943 1.14091 20.7376 1.64503 20.8779C3.21001 21.3118 4.81883 20.5315 5.68242 19.2427C6.546 17.9539 6.44079 16.2794 6.04188 15.5122C6.03749 15.5034 6.03311 15.4947 6.02434 15.4859C6.18216 15.3939 6.34435 15.2974 6.50217 15.2054C6.81341 15.0212 7.12027 14.8503 7.38329 14.71C7.23424 15.1177 7.12465 15.6043 7.07205 16.3057C7.00629 17.1298 7.34384 18.1994 7.78659 18.6203C7.98385 18.8044 8.21619 18.8088 8.36524 18.8088C8.88251 18.8088 9.11485 18.3792 9.37349 17.8706C9.68911 17.2482 9.97405 16.5248 9.97405 16.5248C9.97405 16.5248 9.61897 18.48 10.5834 18.48C10.9341 18.48 11.2892 18.0241 11.447 17.7917C11.447 17.7961 11.447 17.7961 11.447 17.7961C11.447 17.7961 11.4557 17.783 11.4733 17.7523C11.5083 17.6953 11.5303 17.6602 11.5303 17.6602C11.5303 17.6602 11.5303 17.6558 11.5303 17.6515C11.6705 17.406 11.9862 16.8492 12.4552 15.9243C13.0602 14.7319 13.6432 13.2415 13.6432 13.2415C13.6432 13.2415 13.6958 13.6053 13.8755 14.2103C13.9807 14.5653 14.1999 14.9555 14.3753 15.3325C14.235 15.5298 14.1473 15.6393 14.1473 15.6393C14.1473 15.6393 14.1473 15.6393 14.1517 15.6437C14.0377 15.7928 13.915 15.955 13.7791 16.1128C13.3013 16.6827 12.7314 17.3358 12.6525 17.5243C12.5604 17.7479 12.5823 17.9101 12.7577 18.0416C12.8848 18.138 13.1128 18.1512 13.3451 18.138C13.7747 18.1074 14.0772 18.0022 14.2262 17.9364C14.4586 17.8531 14.7304 17.726 14.9846 17.5375C15.4537 17.1912 15.7386 16.6958 15.7123 16.0426C15.6992 15.6832 15.5808 15.3237 15.4361 14.9862C15.48 14.9248 15.5194 14.8634 15.5633 14.8021C16.3041 13.7193 16.8784 12.5313 16.8784 12.5313C16.8784 12.5313 16.931 12.8952 17.1107 13.5001C17.1984 13.807 17.3781 14.1401 17.5359 14.4645C16.8389 15.03 16.4093 15.6876 16.2559 16.1172C15.9797 16.915 16.1945 17.2745 16.6022 17.3578C16.7863 17.3972 17.0493 17.3095 17.2422 17.2262C17.4877 17.1473 17.777 17.0114 18.0532 16.8098C18.5223 16.4635 18.9738 15.9813 18.9475 15.3281C18.9343 15.03 18.8554 14.7363 18.7458 14.4514C19.3376 14.2059 20.1004 14.07 21.0736 14.184C23.1602 14.4294 23.5723 15.7314 23.4934 16.2794C23.4145 16.8273 22.9761 17.1254 22.8314 17.2175C22.6868 17.3095 22.6385 17.3402 22.6517 17.406C22.6692 17.5024 22.7394 17.498 22.8621 17.4805C23.0331 17.4498 23.958 17.0377 23.9975 16.0295C24.0632 14.7407 22.8358 13.3335 20.6659 13.3467ZM4.56896 18.7737C3.87633 19.5277 2.91192 19.8126 2.49547 19.5715C2.04833 19.3129 2.22368 18.1994 3.07412 17.4016C3.59139 16.915 4.25772 16.4635 4.70047 16.1873C4.80129 16.1259 4.95034 16.0383 5.13007 15.9287C5.16076 15.9111 5.17829 15.9024 5.17829 15.9024C5.21336 15.8804 5.24843 15.8585 5.2835 15.8366C5.59474 16.9764 5.29665 17.9802 4.56896 18.7737ZM9.6102 15.3456C9.3691 15.9331 8.86498 17.4367 8.55812 17.3534C8.2951 17.2832 8.1329 16.1435 8.50551 15.0169C8.69401 14.4514 9.09293 13.7763 9.32526 13.5133C9.70226 13.0924 10.1187 12.9521 10.2195 13.1231C10.3467 13.3467 9.75925 14.9774 9.6102 15.3456ZM13.7703 17.3358C13.6695 17.3884 13.5731 17.4235 13.5292 17.3972C13.4985 17.3797 13.5731 17.3095 13.5731 17.3095C13.5731 17.3095 14.0947 16.7484 14.3008 16.4942C14.4191 16.3451 14.5594 16.1698 14.7084 15.9725C14.7084 15.99 14.7084 16.012 14.7084 16.0295C14.7084 16.7002 14.0597 17.1517 13.7703 17.3358ZM16.9792 16.6038C16.9047 16.5512 16.9178 16.3758 17.1677 15.8278C17.2641 15.613 17.4921 15.2536 17.8822 14.9073C17.9261 15.0475 17.9568 15.1834 17.9524 15.3106C17.948 16.1566 17.343 16.4722 16.9792 16.6038Z" fill="#CD6799"/>
</svg>
