<svg width="24" height="24" viewBox="0 0 24 24" fill="none" xmlns="http://www.w3.org/2000/svg">
<path fill-rule="evenodd" clip-rule="evenodd" d="M12 4.7998C8.8 4.7998 6.8 6.3998 6 9.5998C7.2 7.9998 8.6 7.3998 10.2 7.7998C11.1129 8.0278 11.7653 8.69047 12.4876 9.42336C13.664 10.6176 15.0258 11.9998 18 11.9998C21.2 11.9998 23.2 10.3998 24 7.1998C22.8 8.7998 21.4 9.3998 19.8 8.9998C18.8871 8.7718 18.2347 8.10914 17.5124 7.37625C16.336 6.18203 14.9742 4.7998 12 4.7998ZM6 11.9998C2.8 11.9998 0.8 13.5998 0 16.7998C1.2 15.1998 2.6 14.5998 4.2 14.9998C5.11289 15.2282 5.76533 15.8905 6.48756 16.6234C7.664 17.8176 9.02578 19.1998 12 19.1998C15.2 19.1998 17.2 17.5998 18 14.3998C16.8 15.9998 15.4 16.5998 13.8 16.1998C12.8871 15.9718 12.2347 15.3091 11.5124 14.5762C10.336 13.382 8.97422 11.9998 6 11.9998Z" fill="#38BDF8"/>
</svg>
