<svg width="24" height="24" viewBox="0 0 24 24" fill="none" xmlns="http://www.w3.org/2000/svg">
<g clip-path="url(#clip0_659_839)">
<path d="M23.9056 3.5514L12.6458 23.6859C12.4133 24.1016 11.8161 24.1041 11.5801 23.6904L0.0970116 3.55334C-0.16006 3.10254 0.22543 2.55648 0.736283 2.64779L12.0082 4.66258C12.0801 4.67543 12.1537 4.67531 12.2256 4.6622L23.2617 2.65068C23.7709 2.55789 24.1582 3.09971 23.9056 3.5514Z" fill="url(#paint0_linear_659_839)"/>
<path d="M17.3776 0.00590855L9.04502 1.63865C8.90806 1.66548 8.80666 1.78155 8.7984 1.92083L8.28583 10.5777C8.27378 10.7817 8.46103 10.9399 8.66004 10.894L10.98 10.3586C11.197 10.3086 11.3931 10.4997 11.3485 10.718L10.6593 14.0931C10.6129 14.3203 10.8262 14.5145 11.048 14.4471L12.4809 14.0118C12.703 13.9444 12.9165 14.1391 12.8695 14.3665L11.7741 19.668C11.7056 19.9996 12.1467 20.1805 12.3307 19.8962L12.4535 19.7063L19.2434 6.1559C19.3571 5.92901 19.161 5.67031 18.9119 5.7184L16.5239 6.17927C16.2995 6.22254 16.1086 6.01356 16.1719 5.794L17.7305 0.39098C17.7939 0.171059 17.6023 -0.0381043 17.3776 0.00590855Z" fill="url(#paint1_linear_659_839)"/>
</g>
<defs>
<linearGradient id="paint0_linear_659_839" x1="-0.183356" y1="1.92822" x2="13.8304" y2="20.96" gradientUnits="userSpaceOnUse">
<stop stop-color="#41D1FF"/>
<stop offset="1" stop-color="#BD34FE"/>
</linearGradient>
<linearGradient id="paint1_linear_659_839" x1="11.3613" y1="0.449194" x2="13.8963" y2="17.8391" gradientUnits="userSpaceOnUse">
<stop stop-color="#FFEA83"/>
<stop offset="0.0833333" stop-color="#FFDD35"/>
<stop offset="1" stop-color="#FFA800"/>
</linearGradient>
<clipPath id="clip0_659_839">
<rect width="24" height="24" fill="white"/>
</clipPath>
</defs>
</svg>
